<?xml version="1.0" encoding="UTF-8" standalone="no"?>
<svg width="125px" height="98px" viewBox="0 0 125 98" version="1.1" xmlns="http://www.w3.org/2000/svg" xmlns:xlink="http://www.w3.org/1999/xlink" xmlns:sketch="http://www.bohemiancoding.com/sketch/ns">
    <!-- Generator: Sketch 3.0.1 (7597) - http://www.bohemiancoding.com/sketch -->
    <title>Group</title>
    <description>Created with Sketch.</description>
    <defs></defs>
    <g id="Page-1" stroke="none" stroke-width="1" fill="none" fill-rule="evenodd" sketch:type="MSPage">
        <g id="Group" sketch:type="MSLayerGroup" fill="#555555">
            <path d="M47,17.055 L79.725,0 C79.725,0 83.177,25.58 90.06,34.11 L58.197,48.069 C58.197,48.069 52.175,43.416 47,17.055" id="Fill-4" sketch:type="MSShapeGroup"></path>
            <path d="M27.376433,56.056 C27.376433,56.056 28.752433,38.227 42.493433,26.426 L14.827433,20 C14.827433,20 -0.0925670309,36.797 0.000432969099,49.679 L27.376433,56.056 L27.376433,56.056 Z" id="Fill-1-2" sketch:type="MSShapeGroup"></path>
            <path d="M53,66.055 L85.725,49 C85.725,49 89.177,74.58 96.06,83.11 L64.197,97.069 C64.197,97.069 58.175,92.416 53,66.055" id="Fill-6" sketch:type="MSShapeGroup"></path>
            <path d="M110.839,25 C110.839,25 105.009,42.882 94,47.892 L107.594,69.317 C107.594,69.317 120.679,59.718 124.285,46.22 L110.839,25 L110.839,25 Z" id="Fill-8" sketch:type="MSShapeGroup"></path>
            <path d="M39.9536192,59 C39.9536192,59 40.9196192,75.204 53.2046192,86.133 L27.9916192,91.527 C27.9916192,91.527 14.7166192,76.045 15.0046192,64.355 L39.9536192,59 L39.9536192,59 Z" id="Fill-10" sketch:type="MSShapeGroup"></path>
        </g>
    </g>
</svg>