<?xml version="1.0" encoding="utf-8"?>
<!-- Generator: Adobe Illustrator 16.0.0, SVG Export Plug-In . SVG Version: 6.00 Build 0)  -->
<!DOCTYPE svg PUBLIC "-//W3C//DTD SVG 1.1//EN" "http://www.w3.org/Graphics/SVG/1.1/DTD/svg11.dtd">
<svg version="1.1" id="Layer_1" xmlns="http://www.w3.org/2000/svg" xmlns:xlink="http://www.w3.org/1999/xlink" x="0px" y="0px"
	 width="960px" height="560px" viewBox="0 0 960 560" enable-background="new 0 0 960 560" xml:space="preserve">
<path fill-rule="evenodd" clip-rule="evenodd" d="M581.473,224h-27.798C547.12,224,541,228.908,541,235.442v68.86l-63.477-71.225
	l0.127,0.082c-6.172-6.048-17.228-9.433-37.458-9.433c-11.078,0-19.327,1.037-25.604,2.987c3.039,3.218,5.541,7.453,5.816,7.994
	c0.387,0.768,3.357,5.356-0.389,7.103c-3.74,1.748-5.463-1.627-5.463-1.627c-1.56-3.064-3.424-5.382-5.19-7.297
	C402.258,223.88,389.979,224,376.58,224h-35.754c-6.52,0-11.826,4.908-11.826,11.442v89.22c0,6.535,5.307,11.338,11.826,11.338
	h35.754c13.847,0,26.507,0.08,33.484-9.93c1.54-1.783,3.114-3.869,4.443-6.506c0,0,1.767-3.339,5.493-1.579
	c3.732,1.758,0.823,6.385,0.44,7.154c-0.273,0.544-2.71,4.81-5.735,8.038c6.299,2.016,14.281,3.095,25.488,3.095
	c45.037,0,44.808-16.976,44.808-42.583v-17.254l41.302,46.639c8.463,7.303,14.831,11.388,24.092,12.686
	c1.004,0.272,2.184,0.24,3.281,0.24h27.798C610.85,336,630,325.787,630,293.344v-26.358C630,234.314,610.85,224,581.473,224z
	 M376.787,316H352v-25h24.787c6.942,0,15.452,2.463,15.452,12.388C392.239,314.438,383.729,316,376.787,316z M376.787,270H352v-23
	h24.787c6.942,0,15.452,0.662,15.452,11.166C392.239,268.671,383.729,270,376.787,270z M462,295.232
	c0,15.672-2.348,20.973-22.225,20.973c-19.859,0-21.775-5.301-21.775-20.973v-28.465c0-15.67,1.916-21.188,21.775-21.188
	c19.877,0,22.225,5.518,22.225,21.188V295.232z M606,294.801c0,13.104-9.37,21.199-24.085,21.199H565v-69h16.915
	c15.849,0,24.085,6.226,24.085,18.882V294.801z" fill="#14BEC4" stroke="#14BEC4"/>
<g>
</g>
<g>
</g>
<g>
</g>
<g>
</g>
<g>
</g>
<g>
</g>
<g>
</g>
<g>
</g>
<g>
</g>
<g>
</g>
<g>
</g>
<g>
</g>
<g>
</g>
<g>
</g>
<g>
</g>
</svg>
