<?xml version="1.0" encoding="utf-8"?>
<!-- Generator: Adobe Illustrator 16.0.0, SVG Export Plug-In . SVG Version: 6.00 Build 0)  -->
<!DOCTYPE svg PUBLIC "-//W3C//DTD SVG 1.1//EN" "http://www.w3.org/Graphics/SVG/1.1/DTD/svg11.dtd">
<svg version="1.1" id="图层_1" xmlns="http://www.w3.org/2000/svg" xmlns:xlink="http://www.w3.org/1999/xlink" x="0px" y="0px"
	 width="200px" height="200px" viewBox="0 0 200 200" enable-background="new 0 0 200 200" xml:space="preserve" fill="#555555">
<g>
	<defs>
		<rect id="SVGID_1_" x="50.906" y="33.898" width="102.19" height="141.102"/>
	</defs>
	<clipPath id="SVGID_2_">
		<use xlink:href="#SVGID_1_"  overflow="visible"/>
	</clipPath>
	<path clip-path="url(#SVGID_2_)" d="M90.853,139.656h22.2c1.678-7.04,5.971-12.792,9.662-15.43
		c10.752-7.662,23.564-20.669,23.564-39.239c0-0.275,0.025-0.545,0.1-0.8c-0.448-24.094-20.18-43.578-44.378-43.578
		c-24.47,0-44.379,19.915-44.379,44.382c0,18.561,12.812,31.582,23.557,39.245C84.877,126.864,89.178,132.616,90.853,139.656
		 M115.956,146.375H87.945c-1.851,0-3.354-1.496-3.354-3.354c0-0.125,0.006-0.249,0.016-0.363
		c-0.932-5.741-4.316-10.818-7.32-12.959c-12.037-8.564-26.377-23.278-26.377-44.706c0-28.174,22.924-51.094,51.092-51.094
		c28.175,0,51.096,22.92,51.096,51.094c0,0.302-0.042,0.592-0.109,0.867c-0.379,20.956-14.5,35.378-26.368,43.83
		c-3.001,2.149-6.396,7.205-7.325,12.968c0.016,0.114,0.021,0.238,0.021,0.353C119.31,144.869,117.804,146.375,115.956,146.375"/>
	<path clip-path="url(#SVGID_2_)" d="M115.433,164.503c0,5.794-6.014,10.497-13.432,10.497c-5.633,0-10.458-2.71-12.452-6.55
		c-0.634-1.226-0.973-2.557-0.973-3.947"/>
	<path clip-path="url(#SVGID_2_)" d="M86.056,161.295c-0.887,0-1.628-0.696-1.674-1.589c-0.051-0.924,0.659-1.712,1.583-1.766
		l31.896-1.671c0.903-0.063,1.719,0.665,1.766,1.588c0.045,0.925-0.67,1.724-1.589,1.776l-31.892,1.661
		C86.113,161.295,86.087,161.295,86.056,161.295"/>
	<path clip-path="url(#SVGID_2_)" d="M86.056,154.588c-0.887,0-1.628-0.696-1.674-1.589c-0.051-0.925,0.659-1.724,1.583-1.766
		l31.896-1.683c0.903-0.061,1.719,0.665,1.766,1.59c0.045,0.923-0.67,1.713-1.589,1.764l-31.892,1.684H86.056z"/>
</g>
</svg>
