<?xml version="1.0" encoding="utf-8"?>
<!-- Generator: Adobe Illustrator 16.0.0, SVG Export Plug-In . SVG Version: 6.00 Build 0)  -->
<!DOCTYPE svg PUBLIC "-//W3C//DTD SVG 1.1//EN" "http://www.w3.org/Graphics/SVG/1.1/DTD/svg11.dtd">
<svg version="1.1" id="图层_1" xmlns="http://www.w3.org/2000/svg" xmlns:xlink="http://www.w3.org/1999/xlink" x="0px" y="0px"
	 width="200px" height="200px" viewBox="0 0 200 200" enable-background="new 0 0 200 200" xml:space="preserve" fill="#555555">
<g>
	<defs>
		<rect id="SVGID_1_" x="22.823" y="29.833" width="156.354" height="146.282"/>
	</defs>
	<clipPath id="SVGID_2_">
		<use xlink:href="#SVGID_1_"  overflow="visible"/>
	</clipPath>
	<path clip-path="url(#SVGID_2_)" d="M82.148,157.433c-1.946,0.364-3.493,2.229-3.406,4.219c-0.042,2.315,2.111,4.361,4.417,4.221
		c2.439,0.041,4.602-2.328,4.209-4.762C87.164,158.661,84.517,156.813,82.148,157.433 M45.821,42.473
		c-0.798,0.22-1.434,0.939-1.53,1.761c-0.161,1.13,0.7,2.268,1.835,2.392c1.327,0.242,2.672-0.991,2.465-2.341
		C48.505,42.979,47.048,42.066,45.821,42.473 M66.968,37.972c-4.172,0.898-8.347,1.774-12.519,2.664
		c-0.982,0.186-1.769,1.155-1.674,2.164c-0.012,1.275,1.336,2.287,2.563,2c4.174-0.859,8.341-1.771,12.515-2.638
		c0.543-0.108,1.086-0.329,1.453-0.759c0.614-0.657,0.673-1.708,0.228-2.474C69.035,38.045,67.919,37.689,66.968,37.972
		 M83.874,29.975c3.006-0.71,6.337,1.343,7.013,4.367c0.744,3.421,1.506,6.836,2.227,10.259c0.111,0.316-0.203,0.524-0.373,0.738
		c-1.104,1.144-2.104,2.385-3.106,3.62c-0.566-2.198-0.988-4.441-1.475-6.665c-0.748,0.081-1.479,0.28-2.215,0.433
		c-16.437,3.486-32.87,6.979-49.312,10.46c-2.617,0.588-5.263,1.073-7.861,1.724c0.037,0.472,0.154,0.931,0.261,1.392
		c4.588,21.042,9.179,42.083,13.766,63.127c2.933,13.349,5.797,26.716,8.762,40.059c2.416-0.399,4.792-1.007,7.19-1.482
		c17.395-3.687,34.779-7.396,52.181-11.056c-1.179-5.745-2.521-11.455-3.711-17.201c1.362-0.604,2.714-1.224,4.075-1.824
		c2.113,9.689,4.221,19.38,6.339,29.068c0.37,1.584,0,3.291-0.927,4.619c-0.85,1.267-2.228,2.12-3.699,2.455
		c-18.674,3.961-37.348,7.919-56.021,11.883c-1.463,0.333-3.045,0.168-4.361-0.562c-1.54-0.806-2.649-2.334-3.005-4.022
		c-8.852-40.638-17.717-81.27-26.569-121.908c-0.317-1.281-0.346-2.673,0.171-3.909c0.711-1.831,2.386-3.258,4.322-3.624
		C46.322,37.944,65.099,33.957,83.874,29.975"/>
	<path clip-path="url(#SVGID_2_)" d="M105.148,90.473c-0.039,2.241-0.038,4.482-0.004,6.723c14.952,0.031,29.902,0.005,44.849,0.012
		c2.271-0.031,4.548,0.068,6.817-0.048c-0.004-2.219-0.004-4.441,0-6.66c-2.27-0.089-4.546-0.01-6.817-0.038
		C135.047,90.471,120.097,90.446,105.148,90.473 M105.144,76.875c-0.027,2.247-0.035,4.496,0.001,6.742
		c17.224-0.005,34.447,0.03,51.666-0.022c-0.006-2.214-0.004-4.436,0-6.655c-0.26-0.138-0.57-0.08-0.852-0.094
		C139.021,76.875,122.077,76.816,105.144,76.875 M105.145,63.213c-0.036,2.246-0.03,4.495-0.001,6.742
		c16.934,0.061,33.878,0,50.815,0.03c0.281-0.014,0.585,0.04,0.852-0.091c-0.006-2.219-0.004-4.438,0-6.66
		c-6.729-0.055-13.454-0.009-20.184-0.022C126.135,63.21,115.643,63.205,105.145,63.213 M126.414,31.892
		c8.047-0.725,16.28,0.542,23.711,3.735c5.92,2.547,11.329,6.287,15.797,10.932c5.007,5.191,8.804,11.533,11.012,18.401
		c3.908,12.091,2.674,25.759-3.453,36.909c-5.429,10.052-14.582,18.015-25.276,22.036c-9.898,3.763-21.013,4.168-31.171,1.195
		c-1.385-0.354-2.697-0.955-4.073-1.32c-5.221,2.729-10.815,4.696-16.511,6.178c-1.198,0.259-2.433,0.604-3.663,0.397
		c-0.32-0.033-0.544-0.362-0.486-0.675c0.144-0.728,0.637-1.311,1.066-1.891c1.897-2.384,4.059-4.59,5.585-7.249
		c0.7-1.231,1.271-2.605,1.228-4.049c0.037-0.267-0.227-0.411-0.388-0.566c-5.435-4.491-9.88-10.185-12.856-16.579
		c-3.355-7.183-4.876-15.223-4.311-23.134c0.564-8.886,3.741-17.577,9.017-24.745c4.247-5.8,9.818-10.621,16.15-14.021
		C113.541,34.36,119.921,32.461,126.414,31.892"/>
</g>
</svg>
