<?xml version="1.0" encoding="UTF-8" standalone="no"?>
<svg width="84px" height="95px" viewBox="0 0 84 95" version="1.1" xmlns="http://www.w3.org/2000/svg" xmlns:xlink="http://www.w3.org/1999/xlink" xmlns:sketch="http://www.bohemiancoding.com/sketch/ns">
    <!-- Generator: Sketch 3.0.1 (7597) - http://www.bohemiancoding.com/sketch -->
    <title>Group</title>
    <description>Created with Sketch.</description>
    <defs></defs>
    <g id="Page-1" stroke="none" stroke-width="1" fill="none" fill-rule="evenodd" sketch:type="MSPage">
        <g id="Group" sketch:type="MSLayerGroup" transform="translate(1.000000, 2.000000)" stroke="#555555" stroke-width="2">
            <path d="M25.0976,76.8978 C38.6826,76.8978 49.6956,65.8848 49.6956,52.2998 C49.6956,38.7158 38.6826,27.7028 25.0976,27.7028 C11.5126,27.7028 0.4996,38.7158 0.4996,52.2998 C0.4996,65.8848 11.5126,76.8978 25.0976,76.8978 L25.0976,76.8978 L25.0976,76.8978 Z" id="Stroke-1" sketch:type="MSShapeGroup"></path>
            <path d="M56.7358,48.9102 C70.3208,48.9102 81.3338,37.8972 81.3338,24.3122 C81.3338,10.7282 70.3208,-0.2848 56.7358,-0.2848 C43.1508,-0.2848 32.1378,10.7282 32.1378,24.3122 C32.1378,37.8972 43.1508,48.9102 56.7358,48.9102 L56.7358,48.9102 L56.7358,48.9102 Z" id="Stroke-3" sketch:type="MSShapeGroup"></path>
            <path d="M38.9393,91.5 C48.0723,91.5 55.4753,84.097 55.4753,74.964 C55.4753,65.831 48.0723,58.428 38.9393,58.428 C29.8063,58.428 22.4033,65.831 22.4033,74.964 C22.4033,84.097 29.8063,91.5 38.9393,91.5 L38.9393,91.5 L38.9393,91.5 Z" id="Stroke-5" sketch:type="MSShapeGroup"></path>
            <path d="M54.1499,68.3798 C63.2829,68.3798 70.6859,60.9768 70.6859,51.8438 C70.6859,42.7108 63.2829,35.3078 54.1499,35.3078 C45.0169,35.3078 37.6139,42.7108 37.6139,51.8438 C37.6139,60.9768 45.0169,68.3798 54.1499,68.3798 L54.1499,68.3798 L54.1499,68.3798 Z" id="Stroke-7" sketch:type="MSShapeGroup"></path>
        </g>
    </g>
</svg>