<?xml version="1.0" encoding="utf-8"?>
<!-- Generator: Adobe Illustrator 16.0.0, SVG Export Plug-In . SVG Version: 6.00 Build 0)  -->
<!DOCTYPE svg PUBLIC "-//W3C//DTD SVG 1.1//EN" "http://www.w3.org/Graphics/SVG/1.1/DTD/svg11.dtd">
<svg version="1.1" id="Layer_1" xmlns="http://www.w3.org/2000/svg" xmlns:xlink="http://www.w3.org/1999/xlink" x="0px" y="0px"
	 width="512.408px" height="159.859px" viewBox="0 0 512.408 159.859" enable-background="new 0 0 512.408 159.859"
	 xml:space="preserve">
<path fill="#EDA32B" d="M35.642,149.689h4.34v1.142h-5.698V140.8h1.358V149.689z M43.901,143.628c0.518,0,0.986,0.086,1.404,0.259
	c0.417,0.173,0.772,0.418,1.064,0.735s0.516,0.701,0.672,1.151s0.234,0.953,0.234,1.509c0,0.56-0.078,1.063-0.234,1.512
	s-0.38,0.83-0.672,1.147s-0.646,0.562-1.064,0.731c-0.418,0.171-0.886,0.256-1.404,0.256c-0.518,0-0.986-0.085-1.403-0.256
	c-0.417-0.17-0.773-0.414-1.067-0.731s-0.521-0.699-0.679-1.147s-0.238-0.952-0.238-1.512c0-0.556,0.079-1.059,0.238-1.509
	s0.385-0.834,0.679-1.151s0.65-0.562,1.067-0.735S43.384,143.628,43.901,143.628z M43.901,149.956c0.7,0,1.223-0.234,1.568-0.704
	c0.345-0.469,0.518-1.123,0.518-1.963c0-0.845-0.173-1.503-0.518-1.975c-0.346-0.471-0.868-0.707-1.568-0.707
	c-0.354,0-0.663,0.062-0.924,0.183s-0.479,0.296-0.654,0.524c-0.175,0.229-0.306,0.51-0.392,0.844s-0.129,0.711-0.129,1.131
	s0.043,0.795,0.129,1.127c0.086,0.331,0.217,0.61,0.392,0.836c0.175,0.227,0.393,0.4,0.654,0.521
	C43.239,149.896,43.547,149.956,43.901,149.956z M47.892,143.74h0.98c0.103,0,0.187,0.025,0.252,0.076
	c0.065,0.052,0.11,0.112,0.133,0.183l1.358,4.563c0.037,0.168,0.072,0.33,0.105,0.486c0.032,0.157,0.061,0.314,0.084,0.473
	c0.037-0.158,0.079-0.315,0.126-0.473c0.046-0.156,0.096-0.318,0.147-0.486l1.498-4.592c0.023-0.07,0.064-0.128,0.123-0.175
	c0.058-0.047,0.132-0.07,0.22-0.07h0.539c0.093,0,0.17,0.023,0.231,0.07s0.103,0.104,0.126,0.175l1.463,4.592
	c0.052,0.164,0.097,0.324,0.137,0.483c0.04,0.158,0.078,0.314,0.116,0.469c0.023-0.154,0.053-0.314,0.091-0.482
	c0.037-0.169,0.077-0.325,0.119-0.47l1.386-4.563c0.023-0.075,0.068-0.137,0.133-0.186c0.065-0.049,0.142-0.073,0.231-0.073h0.938
	l-2.296,7.091h-0.987c-0.122,0-0.206-0.079-0.252-0.238l-1.568-4.809c-0.038-0.107-0.068-0.216-0.091-0.326
	c-0.023-0.109-0.046-0.218-0.07-0.325c-0.023,0.107-0.047,0.217-0.07,0.329c-0.023,0.112-0.054,0.222-0.091,0.329l-1.589,4.802
	c-0.051,0.159-0.147,0.238-0.287,0.238h-0.938L47.892,143.74z M59.218,146.105h3.458v1.058h-3.458V146.105z M64.678,150.831v-6.027
	l-0.784-0.091c-0.098-0.023-0.178-0.06-0.241-0.108s-0.095-0.12-0.095-0.214v-0.511h1.12v-0.393c0-0.434,0.067-0.831,0.203-1.193
	c0.135-0.361,0.338-0.673,0.609-0.935c0.271-0.261,0.608-0.464,1.011-0.608c0.404-0.145,0.874-0.217,1.411-0.217
	c0.177,0,0.358,0.012,0.542,0.035c0.185,0.024,0.344,0.061,0.479,0.108l-0.042,0.65c-0.009,0.06-0.037,0.097-0.084,0.113
	c-0.047,0.016-0.114,0.023-0.203,0.023c-0.051,0-0.105,0-0.161,0c-0.056,0-0.119,0-0.189,0c-0.826,0-1.427,0.171-1.803,0.513
	c-0.375,0.343-0.563,0.857-0.563,1.546v0.356h4.284v6.951h-1.246v-6.048h-2.996v6.048H64.678z M77.369,150.831
	c-0.177,0-0.289-0.087-0.336-0.26l-0.112-0.86c-0.304,0.368-0.65,0.664-1.04,0.886s-0.836,0.332-1.34,0.332
	c-0.406,0-0.775-0.078-1.106-0.234c-0.331-0.156-0.613-0.386-0.847-0.689s-0.413-0.682-0.539-1.134
	c-0.126-0.453-0.189-0.974-0.189-1.562c0-0.522,0.07-1.009,0.21-1.459s0.342-0.842,0.605-1.173s0.584-0.592,0.962-0.78
	c0.378-0.189,0.808-0.284,1.288-0.284c0.434,0,0.805,0.074,1.113,0.221c0.308,0.147,0.583,0.354,0.826,0.62v-3.935h1.246v10.312
	H77.369z M74.954,149.921c0.406,0,0.762-0.094,1.068-0.28c0.305-0.187,0.586-0.45,0.843-0.791v-3.43
	c-0.229-0.309-0.479-0.524-0.752-0.647c-0.273-0.124-0.575-0.186-0.907-0.186c-0.663,0-1.171,0.235-1.526,0.707
	s-0.532,1.144-0.532,2.016c0,0.462,0.04,0.857,0.119,1.187c0.08,0.329,0.196,0.6,0.35,0.812c0.154,0.212,0.343,0.367,0.567,0.465
	C74.408,149.872,74.665,149.921,74.954,149.921z M83.011,143.628c0.425,0,0.817,0.071,1.176,0.213
	c0.359,0.143,0.669,0.349,0.931,0.616c0.262,0.269,0.466,0.6,0.613,0.994s0.22,0.844,0.22,1.348c0,0.196-0.021,0.326-0.063,0.392
	s-0.121,0.099-0.238,0.099h-4.718c0.01,0.447,0.07,0.838,0.182,1.169c0.112,0.331,0.266,0.607,0.462,0.829
	c0.196,0.222,0.43,0.388,0.7,0.497s0.574,0.165,0.91,0.165c0.312,0,0.582-0.036,0.808-0.109c0.227-0.072,0.421-0.15,0.585-0.234
	c0.163-0.084,0.3-0.162,0.409-0.234c0.11-0.072,0.204-0.108,0.284-0.108c0.103,0,0.182,0.04,0.238,0.119l0.35,0.455
	c-0.154,0.187-0.338,0.349-0.553,0.486c-0.214,0.138-0.444,0.251-0.689,0.34c-0.245,0.089-0.498,0.155-0.759,0.199
	s-0.521,0.066-0.777,0.066c-0.49,0-0.942-0.083-1.354-0.248c-0.413-0.166-0.77-0.409-1.071-0.729
	c-0.301-0.319-0.535-0.715-0.704-1.187c-0.168-0.471-0.252-1.013-0.252-1.624c0-0.494,0.076-0.956,0.228-1.386
	c0.152-0.43,0.37-0.802,0.655-1.116c0.285-0.315,0.632-0.562,1.043-0.742S82.498,143.628,83.011,143.628z M83.039,144.545
	c-0.602,0-1.076,0.174-1.421,0.521c-0.345,0.348-0.56,0.829-0.644,1.445h3.857c0-0.289-0.04-0.554-0.119-0.795
	c-0.08-0.24-0.196-0.447-0.35-0.622c-0.154-0.176-0.342-0.311-0.563-0.406S83.323,144.545,83.039,144.545z M88.926,140.52v10.312
	H87.68V140.52H88.926z M92.79,141.514c0,0.121-0.025,0.234-0.074,0.34c-0.049,0.104-0.114,0.198-0.196,0.279
	c-0.082,0.082-0.176,0.146-0.284,0.193c-0.107,0.046-0.222,0.069-0.343,0.069c-0.122,0-0.235-0.023-0.34-0.069
	c-0.105-0.047-0.198-0.111-0.28-0.193c-0.082-0.081-0.146-0.175-0.192-0.279c-0.047-0.105-0.07-0.219-0.07-0.34
	s0.023-0.236,0.07-0.347c0.046-0.109,0.111-0.205,0.192-0.287c0.082-0.081,0.175-0.146,0.28-0.192
	c0.105-0.046,0.218-0.069,0.34-0.069c0.121,0,0.235,0.023,0.343,0.069c0.107,0.047,0.202,0.111,0.284,0.192
	c0.082,0.082,0.147,0.178,0.196,0.287C92.765,141.277,92.79,141.393,92.79,141.514z M92.51,143.74v7.091h-1.246v-7.091H92.51z
	 M96.857,150.942c-0.56,0-0.991-0.156-1.292-0.469c-0.301-0.312-0.452-0.763-0.452-1.351v-4.34H94.26
	c-0.075,0-0.138-0.022-0.189-0.067c-0.051-0.044-0.077-0.112-0.077-0.206v-0.497l1.162-0.146l0.287-2.191
	c0.009-0.07,0.04-0.127,0.091-0.172c0.051-0.044,0.117-0.066,0.196-0.066h0.63v2.443h2.03v0.903h-2.03v4.256
	c0,0.299,0.072,0.521,0.217,0.665s0.332,0.217,0.56,0.217c0.131,0,0.244-0.018,0.339-0.053s0.179-0.073,0.249-0.115
	c0.07-0.042,0.13-0.081,0.179-0.115c0.049-0.035,0.092-0.053,0.129-0.053c0.065,0,0.124,0.039,0.175,0.119l0.364,0.595
	c-0.215,0.2-0.474,0.358-0.777,0.473C97.491,150.886,97.179,150.942,96.857,150.942z M102.009,152.924
	c-0.042,0.093-0.094,0.168-0.157,0.224c-0.063,0.057-0.16,0.084-0.291,0.084h-0.924l1.295-2.813l-2.926-6.678h1.078
	c0.107,0,0.191,0.026,0.252,0.08c0.061,0.054,0.105,0.113,0.133,0.179l1.897,4.466c0.042,0.103,0.078,0.205,0.108,0.308
	s0.057,0.208,0.081,0.315c0.033-0.107,0.065-0.213,0.098-0.315s0.07-0.207,0.112-0.314l1.841-4.459
	c0.028-0.075,0.076-0.137,0.144-0.186c0.067-0.049,0.141-0.073,0.22-0.073h0.994L102.009,152.924z"/>
<path fill="#EDA32B" d="M226.287,147.204c0.065,0.112,0.123,0.23,0.171,0.354c0.049,0.124,0.097,0.249,0.144,0.375
	c0.046-0.131,0.096-0.256,0.147-0.375s0.11-0.239,0.175-0.36l3.395-6.167c0.061-0.107,0.124-0.173,0.189-0.196
	c0.065-0.022,0.158-0.034,0.28-0.034h1.001v10.03h-1.19v-7.371c0-0.098,0.002-0.202,0.007-0.314
	c0.005-0.112,0.012-0.227,0.021-0.343l-3.437,6.271c-0.117,0.21-0.28,0.315-0.49,0.315h-0.196c-0.21,0-0.373-0.105-0.49-0.315
	l-3.514-6.293c0.014,0.121,0.024,0.24,0.032,0.357c0.007,0.116,0.01,0.224,0.01,0.321v7.371h-1.19V140.8h1.001
	c0.121,0,0.215,0.012,0.28,0.034c0.065,0.023,0.128,0.089,0.189,0.196L226.287,147.204L226.287,147.204z M235.702,141.514
	c0,0.121-0.024,0.234-0.074,0.339c-0.049,0.105-0.114,0.198-0.196,0.28s-0.176,0.146-0.284,0.192s-0.222,0.07-0.343,0.07
	c-0.122,0-0.234-0.023-0.34-0.07c-0.105-0.047-0.198-0.11-0.28-0.192s-0.146-0.175-0.192-0.28c-0.047-0.104-0.07-0.218-0.07-0.339
	c0-0.122,0.023-0.237,0.07-0.347c0.046-0.109,0.111-0.205,0.192-0.287s0.175-0.146,0.28-0.192c0.105-0.047,0.218-0.07,0.34-0.07
	c0.121,0,0.235,0.023,0.343,0.07s0.202,0.11,0.284,0.192s0.147,0.178,0.196,0.287C235.677,141.276,235.702,141.392,235.702,141.514z
	 M235.421,143.739v7.091h-1.246v-7.091H235.421z M242.61,150.83c-0.177,0-0.289-0.086-0.336-0.259l-0.112-0.861
	c-0.304,0.369-0.65,0.664-1.04,0.886s-0.836,0.333-1.34,0.333c-0.406,0-0.775-0.078-1.106-0.234
	c-0.331-0.157-0.613-0.387-0.847-0.69c-0.233-0.303-0.413-0.681-0.539-1.134c-0.126-0.452-0.189-0.973-0.189-1.561
	c0-0.522,0.07-1.01,0.21-1.46s0.342-0.841,0.605-1.172c0.264-0.332,0.584-0.592,0.962-0.781c0.378-0.188,0.808-0.283,1.288-0.283
	c0.434,0,0.805,0.073,1.113,0.221c0.308,0.146,0.583,0.354,0.826,0.619v-3.934h1.246v10.311H242.61z M240.195,149.92
	c0.406,0,0.762-0.093,1.068-0.279c0.305-0.187,0.586-0.45,0.843-0.791v-3.431c-0.229-0.308-0.479-0.523-0.752-0.647
	c-0.273-0.123-0.575-0.186-0.907-0.186c-0.663,0-1.171,0.236-1.526,0.707c-0.354,0.472-0.532,1.144-0.532,2.017
	c0,0.462,0.04,0.857,0.119,1.187c0.08,0.329,0.196,0.6,0.35,0.812c0.154,0.213,0.343,0.368,0.567,0.466
	C239.649,149.871,239.906,149.92,240.195,149.92z M245.124,146.105h3.458v1.057h-3.458V146.105z M250.583,150.83v-6.026
	l-0.784-0.092c-0.098-0.022-0.179-0.059-0.242-0.108c-0.063-0.049-0.095-0.12-0.095-0.213v-0.512h1.12v-0.392
	c0-0.434,0.068-0.832,0.203-1.193s0.338-0.673,0.609-0.935s0.608-0.464,1.012-0.609c0.403-0.145,0.874-0.217,1.41-0.217
	c0.178,0,0.358,0.012,0.542,0.036c0.185,0.023,0.344,0.06,0.479,0.107l-0.042,0.651c-0.009,0.059-0.037,0.097-0.084,0.112
	c-0.046,0.016-0.114,0.023-0.203,0.023c-0.052,0-0.105,0-0.161,0s-0.119,0-0.189,0c-0.826,0-1.427,0.172-1.803,0.514
	c-0.375,0.342-0.563,0.857-0.563,1.546v0.355h4.284v6.951h-1.246v-6.048h-2.996v6.048H250.583z M263.274,150.83
	c-0.178,0-0.289-0.086-0.336-0.259l-0.111-0.861c-0.304,0.369-0.65,0.664-1.04,0.886s-0.837,0.333-1.341,0.333
	c-0.406,0-0.774-0.078-1.105-0.234c-0.332-0.157-0.613-0.387-0.848-0.69c-0.232-0.303-0.412-0.681-0.539-1.134
	c-0.125-0.452-0.188-0.973-0.188-1.561c0-0.522,0.07-1.01,0.21-1.46c0.141-0.45,0.342-0.841,0.605-1.172
	c0.264-0.332,0.584-0.592,0.963-0.781c0.378-0.188,0.807-0.283,1.287-0.283c0.435,0,0.806,0.073,1.113,0.221
	c0.309,0.146,0.584,0.354,0.826,0.619v-3.934h1.246v10.311H263.274z M260.86,149.92c0.405,0,0.762-0.093,1.066-0.279
	c0.307-0.187,0.588-0.45,0.844-0.791v-3.431c-0.229-0.308-0.479-0.523-0.752-0.647c-0.273-0.123-0.576-0.186-0.906-0.186
	c-0.663,0-1.172,0.236-1.526,0.707c-0.354,0.472-0.532,1.144-0.532,2.017c0,0.462,0.039,0.857,0.119,1.187
	c0.079,0.329,0.195,0.6,0.35,0.812c0.154,0.213,0.344,0.368,0.567,0.466S260.57,149.92,260.86,149.92z M268.917,143.627
	c0.424,0,0.816,0.071,1.176,0.214s0.67,0.348,0.932,0.616c0.261,0.269,0.465,0.6,0.611,0.994c0.147,0.395,0.221,0.843,0.221,1.348
	c0,0.195-0.021,0.326-0.062,0.392s-0.121,0.098-0.238,0.098h-4.718c0.009,0.448,0.069,0.838,0.182,1.169
	c0.112,0.332,0.267,0.608,0.462,0.83c0.196,0.222,0.43,0.387,0.7,0.497c0.271,0.109,0.574,0.164,0.91,0.164
	c0.312,0,0.582-0.036,0.809-0.108c0.226-0.072,0.421-0.15,0.585-0.234c0.162-0.084,0.299-0.162,0.408-0.234
	c0.11-0.072,0.205-0.108,0.284-0.108c0.103,0,0.183,0.039,0.238,0.119l0.35,0.454c-0.153,0.188-0.339,0.35-0.553,0.487
	c-0.215,0.138-0.444,0.251-0.689,0.339c-0.245,0.089-0.499,0.155-0.76,0.2c-0.261,0.044-0.521,0.066-0.776,0.066
	c-0.49,0-0.941-0.083-1.355-0.249c-0.412-0.165-0.77-0.408-1.07-0.728c-0.301-0.32-0.535-0.716-0.703-1.187
	c-0.168-0.472-0.252-1.013-0.252-1.624c0-0.495,0.075-0.957,0.227-1.387c0.152-0.429,0.37-0.801,0.654-1.116
	c0.285-0.314,0.633-0.562,1.043-0.742C267.941,143.717,268.403,143.627,268.917,143.627z M268.944,144.544
	c-0.602,0-1.075,0.174-1.42,0.521c-0.346,0.348-0.561,0.83-0.645,1.446h3.857c0-0.29-0.04-0.555-0.119-0.795
	c-0.08-0.24-0.196-0.448-0.351-0.623c-0.153-0.175-0.342-0.311-0.563-0.406S269.229,144.544,268.944,144.544z M274.832,140.52
	v10.311h-1.246V140.52H274.832z M278.696,141.514c0,0.121-0.025,0.234-0.074,0.339c-0.049,0.105-0.114,0.198-0.195,0.28
	c-0.082,0.082-0.177,0.146-0.284,0.192s-0.222,0.07-0.343,0.07s-0.234-0.023-0.34-0.07c-0.104-0.047-0.198-0.11-0.279-0.192
	c-0.082-0.082-0.146-0.175-0.193-0.28c-0.047-0.104-0.069-0.218-0.069-0.339c0-0.122,0.022-0.237,0.069-0.347
	s0.111-0.205,0.193-0.287c0.081-0.082,0.175-0.146,0.279-0.192c0.105-0.047,0.219-0.07,0.34-0.07s0.235,0.023,0.343,0.07
	s0.202,0.11,0.284,0.192c0.081,0.082,0.146,0.178,0.195,0.287S278.696,141.392,278.696,141.514z M278.415,143.739v7.091h-1.245
	v-7.091H278.415z M282.763,150.942c-0.561,0-0.99-0.156-1.291-0.469s-0.452-0.764-0.452-1.352v-4.34h-0.854
	c-0.074,0-0.137-0.021-0.188-0.066c-0.052-0.044-0.077-0.113-0.077-0.206v-0.497l1.162-0.147l0.287-2.19
	c0.01-0.07,0.039-0.128,0.091-0.172s0.116-0.066,0.196-0.066h0.63v2.442h2.03v0.903h-2.03v4.256c0,0.299,0.072,0.521,0.218,0.665
	c0.145,0.145,0.33,0.217,0.559,0.217c0.131,0,0.244-0.017,0.34-0.052s0.179-0.074,0.249-0.116c0.069-0.042,0.13-0.08,0.179-0.115
	s0.092-0.053,0.129-0.053c0.065,0,0.124,0.04,0.176,0.119l0.363,0.596c-0.215,0.2-0.474,0.357-0.777,0.472
	C283.397,150.885,283.085,150.942,282.763,150.942z M287.915,152.924c-0.043,0.093-0.095,0.168-0.158,0.224
	c-0.062,0.056-0.16,0.084-0.29,0.084h-0.924l1.295-2.814l-2.927-6.678h1.078c0.107,0,0.191,0.027,0.252,0.081
	s0.105,0.112,0.133,0.178l1.897,4.466c0.042,0.104,0.078,0.206,0.108,0.309c0.031,0.103,0.058,0.208,0.081,0.314
	c0.032-0.106,0.065-0.212,0.098-0.314s0.07-0.208,0.112-0.315l1.841-4.459c0.028-0.074,0.075-0.136,0.144-0.186
	c0.067-0.049,0.141-0.073,0.221-0.073h0.994L287.915,152.924z"/>
<path fill="#EDA32B" d="M422.363,150.83h-1.364v-4.563h-5.404v4.563h-1.365v-10.031h1.365v4.474h5.404v-4.474h1.364V150.83z
	 M426.283,141.514c0,0.121-0.024,0.234-0.073,0.339c-0.049,0.105-0.114,0.198-0.196,0.28c-0.081,0.082-0.176,0.146-0.283,0.192
	s-0.222,0.07-0.343,0.07s-0.234-0.023-0.34-0.07c-0.104-0.047-0.198-0.11-0.28-0.192c-0.081-0.082-0.146-0.175-0.192-0.28
	c-0.046-0.104-0.069-0.218-0.069-0.339c0-0.122,0.023-0.237,0.069-0.347c0.047-0.11,0.111-0.206,0.192-0.287
	c0.082-0.082,0.176-0.146,0.28-0.192c0.105-0.047,0.219-0.07,0.34-0.07s0.235,0.023,0.343,0.07s0.202,0.11,0.283,0.192
	c0.082,0.081,0.147,0.177,0.196,0.287C426.259,141.276,426.283,141.392,426.283,141.514z M426.004,143.739v7.091h-1.246v-7.091
	H426.004z M430.589,143.62c0.308,0,0.596,0.034,0.864,0.102s0.512,0.167,0.731,0.298h1.925v0.462c0,0.153-0.098,0.252-0.294,0.294
	l-0.805,0.112c0.158,0.303,0.237,0.642,0.237,1.015c0,0.346-0.066,0.659-0.199,0.941s-0.317,0.523-0.553,0.725
	c-0.235,0.2-0.516,0.354-0.84,0.462s-0.681,0.161-1.067,0.161c-0.332,0-0.645-0.04-0.938-0.119c-0.149,0.097-0.263,0.2-0.34,0.312
	c-0.076,0.11-0.115,0.219-0.115,0.325c0,0.174,0.067,0.306,0.203,0.395s0.315,0.153,0.539,0.191
	c0.224,0.039,0.479,0.059,0.763,0.059c0.285,0,0.575,0,0.872,0c0.296,0,0.587,0.025,0.871,0.078
	c0.285,0.052,0.539,0.137,0.763,0.255c0.225,0.118,0.404,0.281,0.539,0.488c0.136,0.208,0.203,0.478,0.203,0.809
	c0,0.307-0.075,0.604-0.228,0.893c-0.151,0.288-0.369,0.544-0.654,0.769c-0.284,0.225-0.632,0.404-1.043,0.539
	c-0.411,0.134-0.875,0.201-1.393,0.201c-0.519,0-0.973-0.051-1.362-0.153c-0.39-0.104-0.713-0.241-0.969-0.414
	c-0.257-0.173-0.449-0.372-0.578-0.599c-0.128-0.227-0.192-0.464-0.192-0.712c0-0.35,0.111-0.647,0.333-0.893
	s0.525-0.44,0.913-0.586c-0.2-0.093-0.36-0.218-0.479-0.373c-0.119-0.156-0.179-0.365-0.179-0.626c0-0.103,0.019-0.208,0.057-0.318
	c0.037-0.109,0.094-0.218,0.171-0.324c0.077-0.107,0.172-0.21,0.284-0.308c0.111-0.098,0.242-0.185,0.392-0.259
	c-0.35-0.196-0.624-0.456-0.822-0.78s-0.298-0.704-0.298-1.138c0-0.346,0.066-0.659,0.199-0.941
	c0.134-0.282,0.319-0.522,0.557-0.722c0.238-0.198,0.521-0.351,0.851-0.458S430.196,143.62,430.589,143.62z M432.801,151.19
	c0-0.182-0.049-0.326-0.147-0.436c-0.098-0.109-0.23-0.194-0.398-0.254s-0.362-0.104-0.581-0.132
	c-0.22-0.028-0.451-0.043-0.693-0.043c-0.243,0-0.49,0-0.742,0s-0.492-0.031-0.721-0.095c-0.266,0.127-0.482,0.281-0.647,0.463
	c-0.166,0.183-0.249,0.399-0.249,0.652c0,0.158,0.041,0.307,0.123,0.445c0.081,0.138,0.206,0.257,0.374,0.357s0.38,0.18,0.634,0.238
	s0.554,0.088,0.899,0.088c0.336,0,0.637-0.031,0.903-0.093c0.266-0.062,0.491-0.15,0.676-0.265c0.184-0.114,0.325-0.25,0.423-0.407
	C432.752,151.554,432.801,151.381,432.801,151.19z M430.589,147.365c0.252,0,0.475-0.035,0.668-0.105
	c0.193-0.069,0.355-0.168,0.486-0.294s0.229-0.276,0.294-0.451s0.099-0.367,0.099-0.577c0-0.435-0.132-0.779-0.396-1.036
	s-0.647-0.385-1.151-0.385c-0.5,0-0.881,0.128-1.145,0.385s-0.396,0.602-0.396,1.036c0,0.21,0.033,0.402,0.102,0.577
	c0.067,0.175,0.166,0.325,0.297,0.451s0.292,0.225,0.483,0.294C430.122,147.33,430.341,147.365,430.589,147.365z M435.355,150.83
	V140.52h1.246v4.172c0.304-0.322,0.64-0.58,1.008-0.773c0.369-0.193,0.794-0.291,1.274-0.291c0.387,0,0.729,0.064,1.025,0.192
	c0.296,0.129,0.543,0.311,0.742,0.546c0.198,0.236,0.349,0.52,0.451,0.851c0.103,0.332,0.154,0.698,0.154,1.1v4.515h-1.246v-4.515
	c0-0.537-0.123-0.953-0.368-1.25c-0.244-0.296-0.619-0.444-1.123-0.444c-0.369,0-0.713,0.089-1.032,0.267
	c-0.32,0.177-0.615,0.417-0.886,0.721v5.222H435.355z M442.817,146.105h3.458v1.057h-3.458V146.105z M448.277,150.83v-6.027
	l-0.784-0.091c-0.098-0.023-0.178-0.06-0.241-0.108c-0.062-0.049-0.095-0.12-0.095-0.213v-0.512h1.12v-0.392
	c0-0.435,0.067-0.832,0.203-1.193c0.136-0.362,0.338-0.673,0.609-0.935c0.271-0.262,0.607-0.465,1.011-0.609
	c0.404-0.145,0.874-0.217,1.411-0.217c0.177,0,0.358,0.012,0.542,0.036c0.185,0.023,0.345,0.06,0.479,0.107l-0.042,0.651
	c-0.009,0.059-0.037,0.097-0.084,0.112s-0.114,0.023-0.203,0.023c-0.051,0-0.104,0-0.16,0c-0.057,0-0.119,0-0.189,0
	c-0.826,0-1.427,0.172-1.803,0.514c-0.375,0.342-0.563,0.857-0.563,1.546v0.355h4.284v6.951h-1.246v-6.048h-2.996v6.048H448.277z
	 M460.969,150.83c-0.178,0-0.289-0.086-0.336-0.259l-0.112-0.861c-0.304,0.369-0.649,0.664-1.039,0.886s-0.837,0.332-1.341,0.332
	c-0.406,0-0.774-0.078-1.106-0.234c-0.331-0.156-0.613-0.386-0.847-0.689c-0.233-0.303-0.413-0.681-0.539-1.134
	c-0.126-0.452-0.188-0.973-0.188-1.561c0-0.522,0.069-1.01,0.21-1.46c0.14-0.45,0.342-0.841,0.605-1.173
	c0.264-0.331,0.584-0.591,0.962-0.78c0.378-0.188,0.808-0.283,1.288-0.283c0.435,0,0.806,0.073,1.113,0.221
	c0.308,0.146,0.583,0.354,0.826,0.619v-3.934h1.246v10.311H460.969z M458.554,149.92c0.406,0,0.762-0.093,1.067-0.279
	s0.587-0.451,0.844-0.791v-3.431c-0.229-0.308-0.479-0.523-0.753-0.647c-0.272-0.123-0.575-0.186-0.906-0.186
	c-0.663,0-1.172,0.236-1.526,0.707c-0.354,0.472-0.531,1.144-0.531,2.017c0,0.462,0.039,0.857,0.118,1.187
	c0.08,0.329,0.196,0.6,0.351,0.812c0.154,0.213,0.343,0.367,0.566,0.466C458.008,149.871,458.265,149.92,458.554,149.92z
	 M466.61,143.627c0.425,0,0.817,0.071,1.177,0.214c0.358,0.143,0.669,0.348,0.931,0.616s0.466,0.6,0.612,0.994
	c0.147,0.394,0.221,0.843,0.221,1.347c0,0.196-0.021,0.327-0.063,0.393s-0.121,0.098-0.237,0.098h-4.719
	c0.01,0.448,0.07,0.838,0.183,1.169c0.112,0.332,0.266,0.608,0.462,0.83s0.43,0.387,0.7,0.497c0.271,0.109,0.574,0.164,0.91,0.164
	c0.312,0,0.582-0.036,0.808-0.108c0.227-0.072,0.422-0.15,0.585-0.234s0.3-0.162,0.409-0.234c0.11-0.072,0.204-0.108,0.284-0.108
	c0.103,0,0.182,0.039,0.237,0.118l0.351,0.455c-0.154,0.187-0.339,0.35-0.554,0.486c-0.214,0.138-0.444,0.251-0.689,0.34
	c-0.244,0.089-0.498,0.155-0.759,0.199c-0.262,0.045-0.521,0.066-0.777,0.066c-0.49,0-0.941-0.082-1.354-0.248
	s-0.77-0.408-1.071-0.728c-0.301-0.32-0.535-0.716-0.703-1.187c-0.168-0.472-0.252-1.013-0.252-1.624
	c0-0.495,0.076-0.957,0.228-1.387c0.151-0.429,0.37-0.801,0.654-1.116s0.633-0.562,1.043-0.742
	C465.636,143.717,466.098,143.627,466.61,143.627z M466.639,144.544c-0.602,0-1.075,0.174-1.421,0.521s-0.561,0.83-0.645,1.445
	h3.857c0-0.289-0.04-0.554-0.119-0.794s-0.195-0.448-0.35-0.623s-0.342-0.311-0.563-0.406S466.923,144.544,466.639,144.544z
	 M472.525,140.52v10.311h-1.246V140.52H472.525z M476.39,141.514c0,0.121-0.024,0.234-0.073,0.339
	c-0.049,0.105-0.114,0.198-0.196,0.28s-0.176,0.146-0.283,0.192s-0.222,0.07-0.343,0.07c-0.122,0-0.235-0.023-0.34-0.07
	c-0.105-0.047-0.198-0.11-0.28-0.192s-0.146-0.175-0.192-0.28c-0.047-0.104-0.07-0.218-0.07-0.339c0-0.122,0.023-0.237,0.07-0.347
	c0.047-0.11,0.11-0.206,0.192-0.287c0.082-0.082,0.175-0.146,0.28-0.192c0.104-0.047,0.218-0.07,0.34-0.07
	c0.121,0,0.235,0.023,0.343,0.07s0.201,0.11,0.283,0.192c0.082,0.081,0.147,0.177,0.196,0.287
	C476.365,141.276,476.39,141.392,476.39,141.514z M476.109,143.739v7.091h-1.246v-7.091H476.109z M480.457,150.942
	c-0.561,0-0.991-0.156-1.292-0.469c-0.301-0.313-0.451-0.764-0.451-1.352v-4.34h-0.854c-0.074,0-0.138-0.022-0.188-0.066
	c-0.052-0.044-0.077-0.113-0.077-0.207v-0.496l1.162-0.147l0.287-2.191c0.009-0.069,0.039-0.127,0.091-0.171
	c0.051-0.045,0.116-0.066,0.196-0.066h0.63v2.442h2.029v0.903h-2.029v4.256c0,0.299,0.072,0.521,0.217,0.665s0.331,0.217,0.56,0.217
	c0.131,0,0.244-0.018,0.34-0.052c0.096-0.035,0.179-0.074,0.248-0.116c0.07-0.042,0.13-0.08,0.179-0.115s0.093-0.053,0.13-0.053
	c0.065,0,0.123,0.04,0.175,0.119l0.364,0.595c-0.215,0.201-0.474,0.358-0.777,0.473S480.778,150.942,480.457,150.942z
	 M485.608,152.923c-0.042,0.094-0.094,0.168-0.157,0.225c-0.063,0.056-0.16,0.084-0.29,0.084h-0.925l1.295-2.814l-2.926-6.678h1.078
	c0.107,0,0.191,0.027,0.252,0.08c0.061,0.054,0.105,0.113,0.133,0.179l1.897,4.466c0.042,0.104,0.078,0.206,0.108,0.309
	s0.057,0.207,0.08,0.314c0.033-0.107,0.065-0.212,0.099-0.314c0.032-0.103,0.069-0.208,0.111-0.315l1.842-4.459
	c0.027-0.074,0.075-0.137,0.144-0.186c0.067-0.049,0.141-0.073,0.22-0.073h0.994L485.608,152.923z"/>
<g>
	<defs>
		<rect id="SVGID_1_" x="6.901" y="3.172" width="499.401" height="160.393"/>
	</defs>
	<clipPath id="SVGID_2_">
		<use xlink:href="#SVGID_1_"  overflow="visible"/>
	</clipPath>
	<path clip-path="url(#SVGID_2_)" fill="none" stroke="#BBBDBF" stroke-width="2" stroke-miterlimit="10" d="M7.284,31.586
		L64.361,7.937c0,0,3.991-1.654,8.021-0.098l59.008,22.773"/>
	<path clip-path="url(#SVGID_2_)" fill="none" stroke="#BBBDBF" stroke-width="2" stroke-miterlimit="10" d="M254.09,29.586
		l57.077-23.649c0,0,3.99-1.654,8.021-0.098l59.009,22.773"/>
	<path clip-path="url(#SVGID_2_)" fill="none" stroke="#BBBDBF" stroke-width="2" stroke-miterlimit="10" d="M130.203,30.586
		L187.28,6.937c0,0,3.991-1.654,8.021-0.098l59.008,22.773"/>
	<path clip-path="url(#SVGID_2_)" fill="none" stroke="#BBBDBF" stroke-width="2" stroke-miterlimit="10" d="M378.009,28.586
		l57.076-23.649c0,0,3.991-1.654,8.021-0.098l59.008,22.773"/>
	<path clip-path="url(#SVGID_2_)" fill="none" stroke="#BBBDBF" stroke-width="2" stroke-miterlimit="10" d="M503.103,102.938
		l-57.077,23.648c0,0-3.991,1.654-8.021,0.099l-59.008-22.774"/>
	<path clip-path="url(#SVGID_2_)" fill="none" stroke="#BBBDBF" stroke-width="2" stroke-miterlimit="10" d="M255.297,104.938
		l-57.077,23.648c0,0-3.991,1.654-8.021,0.099l-59.008-22.774"/>
	<path clip-path="url(#SVGID_2_)" fill="none" stroke="#BBBDBF" stroke-width="2" stroke-miterlimit="10" d="M379.185,103.938
		l-57.078,23.648c0,0-3.99,1.654-8.021,0.099l-59.008-22.774"/>
	<path clip-path="url(#SVGID_2_)" fill="none" stroke="#BBBDBF" stroke-width="2" stroke-miterlimit="10" d="M132.378,105.938
		l-57.077,23.648c0,0-3.991,1.654-8.021,0.099L8.272,106.911"/>
	<path clip-path="url(#SVGID_2_)" fill="#AECBD8" d="M68.586,88.708c10.809,0,19.572-8.763,19.572-19.571
		c0-10.81-8.763-19.572-19.572-19.572s-19.572,8.763-19.572,19.572C49.014,79.945,57.777,88.708,68.586,88.708"/>
</g>
<text transform="matrix(1 0 0 1 62.4746 76.2598)" fill="#FFFFFF" font-family="'Lato-Bold'" font-size="20">1</text>
<g>
	<defs>
		<rect id="SVGID_3_" x="6.901" y="3.172" width="499.401" height="160.393"/>
	</defs>
	<clipPath id="SVGID_4_">
		<use xlink:href="#SVGID_3_"  overflow="visible"/>
	</clipPath>
	<path clip-path="url(#SVGID_4_)" fill="#67ACBD" d="M192.722,88.708c10.809,0,19.572-8.763,19.572-19.571
		c0-10.81-8.763-19.572-19.572-19.572s-19.572,8.763-19.572,19.572C173.15,79.945,181.913,88.708,192.722,88.708"/>
</g>
<text transform="matrix(1 0 0 1 186.6108 76.2598)" fill="#FFFFFF" font-family="'Lato-Bold'" font-size="20">2</text>
<g>
	<defs>
		<rect id="SVGID_5_" x="6.901" y="3.172" width="499.401" height="160.393"/>
	</defs>
	<clipPath id="SVGID_6_">
		<use xlink:href="#SVGID_5_"  overflow="visible"/>
	</clipPath>
	<path clip-path="url(#SVGID_6_)" fill="#3590A8" d="M317.722,88.708c10.81,0,19.572-8.763,19.572-19.571
		c0-10.81-8.763-19.572-19.572-19.572c-10.809,0-19.571,8.763-19.571,19.572C298.15,79.945,306.913,88.708,317.722,88.708"/>
</g>
<text transform="matrix(1 0 0 1 311.6108 76.2598)" fill="#FFFFFF" font-family="'Lato-Bold'" font-size="20">3</text>
<g>
	<defs>
		<rect id="SVGID_7_" x="6.901" y="3.172" width="499.401" height="160.393"/>
	</defs>
	<clipPath id="SVGID_8_">
		<use xlink:href="#SVGID_7_"  overflow="visible"/>
	</clipPath>
	<path clip-path="url(#SVGID_8_)" fill="#027692" d="M444.722,88.708c10.81,0,19.572-8.763,19.572-19.571
		c0-10.81-8.763-19.572-19.572-19.572c-10.809,0-19.571,8.763-19.571,19.572C425.15,79.945,433.913,88.708,444.722,88.708"/>
</g>
<text transform="matrix(1 0 0 1 438.6113 76.2598)" fill="#FFFFFF" font-family="'Lato-Bold'" font-size="20">4</text>
</svg>
