<?xml version="1.0" encoding="utf-8"?>
<!-- Generator: Adobe Illustrator 16.0.0, SVG Export Plug-In . SVG Version: 6.00 Build 0)  -->
<!DOCTYPE svg PUBLIC "-//W3C//DTD SVG 1.1//EN" "http://www.w3.org/Graphics/SVG/1.1/DTD/svg11.dtd">
<svg version="1.1" id="图层_1" xmlns="http://www.w3.org/2000/svg" xmlns:xlink="http://www.w3.org/1999/xlink" x="0px" y="0px"
	 width="200px" height="200px" viewBox="0 0 200 200" enable-background="new 0 0 200 200" xml:space="preserve" fill="#555555">
<g>
	<polygon points="71.815,125.685 75.068,121.402 73.376,116.281 78.464,118.056 82.802,114.868 82.688,120.252 87.062,123.394 
		81.907,124.952 80.274,130.082 77.197,125.663 	"/>
	<polygon points="48.967,118.181 47.124,109.911 39.277,106.748 46.565,102.444 47.151,93.993 53.503,99.605 61.714,97.555 
		58.344,105.315 62.837,112.499 54.405,111.686 	"/>
	<polygon points="37.193,64.968 27.954,67.848 35.854,73.433 35.737,83.112 43.495,77.321 52.655,80.423 49.547,71.258 
		55.335,63.501 45.657,63.628 40.064,55.728 	"/>
	<g>
		<defs>
			<rect id="SVGID_1_" x="27.954" y="47.874" width="148.092" height="111.074"/>
		</defs>
		<clipPath id="SVGID_2_">
			<use xlink:href="#SVGID_1_"  overflow="visible"/>
		</clipPath>
		<path clip-path="url(#SVGID_2_)" d="M174.448,149.669l-63.18-63.187c6.167-0.256,15.234-1.068,27.477-1.922
			c-15.152-1.046-25.46-2.053-31.396-1.991l-0.343-0.337c4.271-4.138,10.906-12.142,20.995-23.606
			c-11.733,10.319-19.854,17.032-23.896,21.29c-0.018-0.014-0.039-0.014-0.058-0.024c0.145-5.831-0.899-16.336-1.984-32.016
			c-1.085,15.667-2.13,26.162-1.986,31.998c-0.028,0.012-0.057,0.012-0.077,0.022c-4.051-4.258-12.161-10.964-23.88-21.272
			C86.329,70.221,93.006,78.286,97.266,82.38c-0.038,0.066-0.071,0.128-0.1,0.188c-5.882-0.105-16.304,0.93-31.788,1.991
			c15.225,1.051,25.56,2.063,31.489,1.99c0.044,0.154,0.071,0.306,0.134,0.449c-4.277,4.17-10.876,12.137-20.879,23.502
			c11.099-9.76,18.959-16.294,23.21-20.576l0.734,0.736c0.027,6.046,1.002,16.108,1.997,30.588
			c0.808-11.73,1.599-20.559,1.881-26.705l62.82,62.814c2.122,2.119,5.562,2.119,7.687,0
			C176.578,155.234,176.578,151.793,174.448,149.669"/>
	</g>
</g>
</svg>
