<?xml version="1.0" encoding="UTF-8" standalone="no"?>
<svg width="100px" height="101px" viewBox="0 0 100 101" version="1.1" xmlns="http://www.w3.org/2000/svg" xmlns:xlink="http://www.w3.org/1999/xlink" xmlns:sketch="http://www.bohemiancoding.com/sketch/ns">
    <!-- Generator: Sketch 3.0.1 (7597) - http://www.bohemiancoding.com/sketch -->
    <title>chart_area_3</title>
    <description>Created with Sketch.</description>
    <defs></defs>
    <g id="Page-1" stroke="none" stroke-width="1" fill="none" fill-rule="evenodd" sketch:type="MSPage">
        <path d="M4,96.047363 L95,96.047363 L95,94.047363 L100,97.071045 L95,100.094727 L95,98.047363 L2,98.047363 L2,96.547363 L2,5.0473633 L0,5.0473633 L3,0.0473633 L6,5.0473633 L4,5.0473633 L4,96.047363 L4,96.047363 Z M6,94.07959 L20.1611328,66.5634766 L32.9423828,77.5986328 L56.1337891,65.5634766 L72.3701172,75.7958984 L91,54.5283203 L91,94.07959 L6,94.07959 L6,94.07959 Z M7.109375,86.9599609 L19.6748047,62.5634766 L32.9423828,74.5986328 L56.8486328,62.5634766 L72.3388672,71.9179688 L91,50.2060547 L91,28.1640625 L70.3007812,54.9345703 L51.6337891,37.1367188 L35.671875,59.0009766 L10.9667969,47.5742188 L7.109375,86.9599609 L7.109375,86.9599609 Z" id="chart_area_3" fill="#565656" sketch:type="MSShapeGroup"></path>
    </g>
</svg>