<?xml version="1.0" encoding="utf-8"?>
<!-- Generator: Adobe Illustrator 16.0.0, SVG Export Plug-In . SVG Version: 6.00 Build 0)  -->
<!DOCTYPE svg PUBLIC "-//W3C//DTD SVG 1.1//EN" "http://www.w3.org/Graphics/SVG/1.1/DTD/svg11.dtd">
<svg version="1.1" id="图层_1" xmlns="http://www.w3.org/2000/svg" xmlns:xlink="http://www.w3.org/1999/xlink" x="0px" y="0px"
	 width="200px" height="200px" viewBox="0 0 200 200" enable-background="new 0 0 200 200" xml:space="preserve" fill="#555555">
<g>
	<path fill="#555555" d="M107.371,84.765h29.341v26.321h-29.341V84.765z M103.636,114.82h36.811V81.027h-36.811V114.82z"/>
	<path fill="#555555" d="M94.626,111.083H65.288V84.765h29.338V111.083z M98.363,81.027H61.552v33.793h36.812V81.027z"/>
	<path fill="#555555" d="M106.689,61.919l30.019-10.439v20.878L106.689,61.919z M101,63.897l26.519,9.22H74.482L101,63.897z
		 M74.482,50.722h53.037L101,59.942L74.482,50.722z M95.311,61.919L65.29,72.358V51.479L95.311,61.919z M61.552,76.852h78.895
		V46.985H61.552V76.852z"/>
	<rect x="81.716" y="124.662" fill="#555555" width="56.862" height="3.735"/>
	<rect x="81.716" y="137.915" fill="#555555" width="56.862" height="3.735"/>
	<rect x="81.716" y="151.165" fill="#555555" width="56.862" height="3.739"/>
	<g>
		<defs>
			<rect id="SVGID_1_" x="53.944" y="12.685" width="94.111" height="176.63"/>
		</defs>
		<clipPath id="SVGID_2_">
			<use xlink:href="#SVGID_1_"  overflow="visible"/>
		</clipPath>
		<path clip-path="url(#SVGID_2_)" fill="#555555" d="M71.854,121.887c2.564,0,4.643,2.079,4.643,4.641
			c0,2.565-2.079,4.645-4.643,4.645s-4.641-2.079-4.641-4.645C67.213,123.966,69.29,121.887,71.854,121.887"/>
		<path clip-path="url(#SVGID_2_)" fill="#555555" d="M71.854,135.144c2.563,0,4.641,2.076,4.641,4.642
			c0,2.562-2.079,4.638-4.641,4.638c-2.562,0-4.639-2.076-4.639-4.638C67.215,137.22,69.292,135.144,71.854,135.144"/>
		<path clip-path="url(#SVGID_2_)" fill="#555555" d="M71.854,148.394c2.563,0,4.641,2.08,4.641,4.642
			c0,2.564-2.079,4.642-4.641,4.642c-2.562,0-4.639-2.077-4.639-4.642C67.215,150.474,69.292,148.394,71.854,148.394"/>
		<path clip-path="url(#SVGID_2_)" fill="#555555" d="M144.7,151.207c0,6.501-5.273,11.777-11.779,11.777H69.082
			c-6.505,0-11.776-5.276-11.776-11.777V51.923c0-6.506,5.271-11.779,11.776-11.779h63.839c6.503,0,11.779,5.273,11.779,11.779
			V151.207z M110.548,178.084c0,3.438-2.791,3.735-6.229,3.735h-6.642c-3.437,0-6.226-0.297-6.226-3.735v-3.081
			c0-3.441,2.789-3.739,6.226-3.739h6.642c3.438,0,6.229,0.298,6.229,3.739V178.084z M91.729,25.099h18.548
			c0.793,0,1.432,0.643,1.432,1.435c0,0.793-0.643,1.436-1.432,1.436H91.729c-0.791,0-1.437-0.643-1.437-1.436
			C90.292,25.741,90.938,25.099,91.729,25.099 M122.042,22.816c2.052,0,3.721,1.665,3.721,3.717c0,2.055-1.666,3.718-3.721,3.718
			c-2.053,0-3.719-1.664-3.719-3.718C118.323,24.481,119.989,22.816,122.042,22.816 M132.053,22.816
			c2.054,0,3.718,1.665,3.718,3.717c0,2.055-1.664,3.718-3.718,3.718c-2.055,0-3.72-1.664-3.72-3.718
			C128.333,24.481,130.001,22.816,132.053,22.816 M135.971,12.685H66.027c-6.675,0-12.083,5.41-12.083,12.083v152.464
			c0,6.67,5.408,12.083,12.083,12.083h69.943c6.677,0,12.085-5.413,12.085-12.083V24.768
			C148.056,18.097,142.647,12.685,135.971,12.685"/>
	</g>
</g>
</svg>
