<?xml version="1.0" encoding="utf-8"?>
<!-- Generator: Adobe Illustrator 16.0.0, SVG Export Plug-In . SVG Version: 6.00 Build 0)  -->
<!DOCTYPE svg PUBLIC "-//W3C//DTD SVG 1.1//EN" "http://www.w3.org/Graphics/SVG/1.1/DTD/svg11.dtd">
<svg version="1.1" id="图层_1" xmlns="http://www.w3.org/2000/svg" xmlns:xlink="http://www.w3.org/1999/xlink" x="0px" y="0px"
	 width="200px" height="200px" viewBox="0 0 200 200" enable-background="new 0 0 200 200" xml:space="preserve" fill="#555555">
<g>
	<path d="M97.738,97.984H54.4V53.759h43.338V97.984z M100.771,50.727H51.368v50.291h49.403V50.727z"/>
	<rect x="52.882" y="148.642" width="41.731" height="9.453"/>
	<rect x="52.882" y="129.741" width="83.464" height="9.453"/>
	<rect x="52.882" y="110.842" width="83.464" height="9.45"/>
	<g>
		<g>
			<defs>
				<rect id="SVGID_1_" x="41.607" y="31.839" width="114.785" height="147.164"/>
			</defs>
			<clipPath id="SVGID_2_">
				<use xlink:href="#SVGID_1_"  overflow="visible"/>
			</clipPath>
			<path clip-path="url(#SVGID_2_)" d="M153.391,166.044h-1.629V38.07c0-0.83-0.676-1.507-1.502-1.507H54.389v-1.718h99.002V166.044
				L153.391,166.044z M148.754,170.772h-1.131V71.145c0-0.526-0.207-1.029-0.574-1.404L119.23,41.388
				c-0.379-0.382-0.893-0.599-1.434-0.599H49.748v-1.217h99.006V170.772L148.754,170.772z M119.301,47.189l22.031,22.452h-22.031
				V47.189z M45.619,174.991V44.8h70.676v26.345c0,0.83,0.676,1.505,1.502,1.505h25.814v102.341H45.619z M154.895,31.839H52.883
				c-0.828,0-1.502,0.673-1.502,1.502v3.222h-3.136c-0.831,0-1.505,0.677-1.505,1.507v2.719h-3.131
				c-1.104,0-2.002,0.899-2.002,2.003v134.204c0,1.104,0.896,2.008,2.002,2.008h102.006c1.105,0,2.008-0.901,2.008-2.008v-3.22
				h2.631c0.832,0,1.508-0.67,1.508-1.506v-3.217h3.127c0.828,0,1.504-0.679,1.504-1.504V33.341
				C156.396,32.512,155.725,31.839,154.895,31.839"/>
		</g>
	</g>
</g>
</svg>
