<?xml version="1.0" encoding="UTF-8" standalone="no"?>
<svg width="86px" height="90px" viewBox="0 0 86 90" version="1.1" xmlns="http://www.w3.org/2000/svg" xmlns:xlink="http://www.w3.org/1999/xlink" xmlns:sketch="http://www.bohemiancoding.com/sketch/ns">
    <!-- Generator: Sketch 3.0.1 (7597) - http://www.bohemiancoding.com/sketch -->
    <title>icon_11105</title>
    <description>Created with Sketch.</description>
    <defs></defs>
    <g id="Page-1" stroke="none" stroke-width="1" fill="none" fill-rule="evenodd" sketch:type="MSPage">
        <g id="icon_11105" sketch:type="MSLayerGroup" transform="translate(1.000000, 0.000000)" fill="#555555">
            <path d="M18.323,89.479 C18.201,89.784 18.288,89.54 18.261,89.597 L18.259,89.554 L18.256,89.47 L18.249,89.302 L18.234,88.965 L18.207,88.292 L18.152,86.945 L18.041,84.253 L17.814,78.868 L17.799,78.531 L17.791,78.368 L17.779,78.206 C17.761,77.989 17.735,77.773 17.699,77.56 C17.628,77.131 17.518,76.71 17.374,76.302 C17.084,75.485 16.647,74.721 16.098,74.048 C15.824,73.711 15.522,73.397 15.199,73.105 C15.118,73.033 15.036,72.96 14.952,72.891 L14.826,72.787 L14.694,72.681 C14.52,72.54 14.343,72.395 14.172,72.25 C13.479,71.668 12.804,71.064 12.151,70.438 C9.537,67.936 7.254,65.085 5.384,61.984 C3.513,58.882 2.066,55.525 1.088,52.036 C0.11,48.546 -0.393,44.924 -0.416,41.3 C-0.439,37.675 0.017,34.045 0.95,30.539 C1.883,27.034 3.292,23.654 5.122,20.521 C6.953,17.387 9.206,14.502 11.795,11.959 C14.384,9.416 17.31,7.215 20.473,5.436 C23.636,3.655 27.036,2.295 30.557,1.407 C34.077,0.517 37.715,0.1 41.344,0.155 C44.974,0.208 48.597,0.734 52.09,1.731 C53.836,2.229 55.551,2.842 57.215,3.569 C58.879,4.296 60.494,5.132 62.047,6.073 C65.154,7.952 68.012,10.244 70.522,12.868 C70.834,13.196 71.143,13.529 71.446,13.868 L71.671,14.122 L71.896,14.379 C72.048,14.556 72.193,14.731 72.335,14.911 C72.909,15.629 73.433,16.39 73.89,17.189 C74.347,17.988 74.74,18.826 75.062,19.686 C75.386,20.547 75.644,21.429 75.853,22.318 C76.269,24.098 76.494,25.898 76.712,27.682 C76.927,29.468 77.136,31.245 77.427,33.006 L77.388,32.886 L80.814,39.657 L82.529,43.041 L83.39,44.731 C83.683,45.316 83.933,45.925 84.117,46.562 C84.299,47.198 84.416,47.862 84.418,48.54 C84.424,49.217 84.309,49.91 84.035,50.55 C83.764,51.19 83.33,51.762 82.806,52.205 L81.363,53.435 L75.59,58.358 L75.721,58.087 L75.42,64.595 L75.26,67.849 L75.174,69.477 L75.127,70.293 C75.117,70.425 75.107,70.576 75.09,70.718 C75.072,70.861 75.051,71.002 75.024,71.143 C74.809,72.268 74.319,73.325 73.629,74.229 C72.941,75.133 72.041,75.879 71.018,76.379 C69.997,76.882 68.864,77.135 67.739,77.171 C67.598,77.176 67.458,77.177 67.317,77.176 L66.909,77.169 L66.097,77.156 C65.554,77.148 65.009,77.139 64.466,77.126 C62.288,77.074 60.105,76.952 57.939,76.664 C55.771,76.379 53.623,75.931 51.531,75.288 C49.439,74.647 47.406,73.812 45.47,72.793 C43.536,71.773 41.7,70.572 39.98,69.228 C39.885,69.154 39.869,69.016 39.943,68.921 C40.011,68.833 40.136,68.813 40.229,68.87 L40.248,68.882 C42.085,70.034 43.982,71.054 45.947,71.88 C47.906,72.715 49.926,73.359 51.972,73.827 C54.023,74.287 56.097,74.581 58.189,74.711 C59.234,74.774 60.283,74.815 61.335,74.818 C62.39,74.825 63.446,74.801 64.515,74.762 L67.652,74.642 C68.47,74.585 69.218,74.377 69.863,74.03 C70.509,73.682 71.058,73.189 71.48,72.591 C71.691,72.293 71.869,71.969 72.005,71.635 C72.141,71.301 72.237,70.955 72.286,70.628 C72.3,70.546 72.307,70.466 72.313,70.387 L72.319,70.328 C72.319,70.309 72.321,70.286 72.321,70.278 L72.321,70.25 L72.323,70.224 L72.323,70.212 C72.323,70.214 72.325,70.188 72.323,70.214 L72.325,70.118 L72.329,69.325 L72.331,67.708 L72.333,64.456 C72.339,62.286 72.341,60.113 72.353,57.944 C72.357,57.151 72.697,56.439 73.238,55.941 L73.398,55.795 L76.199,53.234 L79.008,50.68 L80.414,49.408 L80.441,49.382 L80.462,49.361 C80.476,49.347 80.487,49.334 80.499,49.32 C80.52,49.294 80.54,49.268 80.556,49.245 C80.587,49.196 80.611,49.151 80.63,49.097 C80.649,49.043 80.667,48.975 80.681,48.887 C80.693,48.799 80.701,48.691 80.697,48.561 C80.689,48.303 80.635,47.966 80.519,47.598 C80.464,47.413 80.394,47.221 80.312,47.025 C80.271,46.926 80.226,46.827 80.179,46.727 L80.107,46.577 L80.033,46.431 L79.129,44.772 C78.522,43.659 77.918,42.547 77.318,41.432 L75.521,38.088 L73.736,34.738 C73.576,34.439 73.468,34.126 73.412,33.808 L73.389,33.675 C73.053,31.803 72.817,29.947 72.58,28.187 C72.343,26.427 72.109,24.765 71.744,23.284 C71.56,22.542 71.346,21.845 71.09,21.187 C70.832,20.529 70.533,19.91 70.186,19.313 C69.838,18.717 69.438,18.146 68.987,17.59 L68.815,17.383 L68.649,17.188 L68.45,16.964 L68.247,16.737 C67.974,16.436 67.694,16.14 67.411,15.848 C66.278,14.682 65.075,13.584 63.802,12.575 C62.529,11.566 61.189,10.64 59.8,9.801 C58.407,8.963 56.962,8.218 55.474,7.572 C53.986,6.925 52.458,6.371 50.898,5.924 C47.777,5.03 44.541,4.536 41.283,4.474 C39.654,4.44 38.023,4.505 36.404,4.681 C35.595,4.768 34.79,4.882 33.988,5.022 C33.185,5.16 32.388,5.325 31.596,5.515 C30.013,5.895 28.456,6.386 26.935,6.97 C25.413,7.554 23.928,8.24 22.494,9.022 C21.059,9.803 19.671,10.674 18.347,11.638 C17.023,12.602 15.757,13.649 14.564,14.776 C12.18,17.033 10.079,19.601 8.347,22.409 C7.479,23.811 6.704,25.273 6.028,26.782 C5.349,28.29 4.77,29.845 4.298,31.435 C3.822,33.025 3.451,34.65 3.191,36.296 C2.928,37.942 2.771,39.609 2.725,41.285 C2.676,42.961 2.735,44.642 2.907,46.315 C3.076,47.988 3.356,49.654 3.747,51.297 C4.135,52.943 4.638,54.564 5.241,56.152 C5.845,57.741 6.56,59.292 7.368,60.799 C8.179,62.305 9.093,63.762 10.102,65.155 C11.108,66.552 12.205,67.892 13.392,69.155 C13.984,69.788 14.602,70.398 15.234,70.996 C15.394,71.147 15.544,71.286 15.714,71.441 L15.745,71.469 C15.758,71.481 15.739,71.467 15.765,71.488 L15.836,71.551 L15.978,71.68 C16.072,71.767 16.164,71.856 16.254,71.946 C16.618,72.306 16.956,72.695 17.262,73.11 C17.873,73.938 18.351,74.873 18.645,75.855 C18.791,76.347 18.893,76.849 18.95,77.354 C18.978,77.605 18.997,77.858 19.004,78.11 L19,78.301 C19,78.366 19.001,78.436 18.999,78.488 L18.993,78.823 C18.975,79.723 18.962,80.624 18.938,81.524 L18.872,84.223 C18.85,85.122 18.819,86.023 18.793,86.923 L18.748,88.273 L18.725,88.949 L18.712,89.286 L18.705,89.455 L18.702,89.54 L18.7,89.581 C18.673,89.666 18.76,89.449 18.638,89.783 C18.554,89.869 18.415,89.872 18.329,89.788 C18.242,89.704 18.239,89.566 18.323,89.479 L18.323,89.479 Z" id="Shape" sketch:type="MSShapeGroup"></path>
        </g>
    </g>
</svg>