<?xml version="1.0" encoding="utf-8"?>
<!-- Generator: Adobe Illustrator 16.0.0, SVG Export Plug-In . SVG Version: 6.00 Build 0)  -->
<!DOCTYPE svg PUBLIC "-//W3C//DTD SVG 1.1//EN" "http://www.w3.org/Graphics/SVG/1.1/DTD/svg11.dtd">
<svg version="1.1" id="Layer_1" xmlns="http://www.w3.org/2000/svg" xmlns:xlink="http://www.w3.org/1999/xlink" x="0px" y="0px"
	 width="1200px" height="1075px" viewBox="0 0 1200 1075" enable-background="new 0 0 1200 1075" xml:space="preserve">
<g>
	<defs>
		
			<rect id="SVGID_1_" x="-26.346" y="591.185" transform="matrix(0.1986 0.9801 -0.9801 0.1986 896.1827 375.0237)" width="490.236" height="288.647"/>
	</defs>
	<clipPath id="SVGID_2_">
		<use xlink:href="#SVGID_1_"  overflow="visible"/>
	</clipPath>
	
		<rect x="5.833" y="443.801" clip-path="url(#SVGID_2_)" fill-rule="evenodd" clip-rule="evenodd" fill="#FFFFFF" width="425.878" height="583.416"/>
</g>
<rect x="-26.346" y="591.185" transform="matrix(0.1986 0.9801 -0.9801 0.1986 896.1827 375.0237)" fill="none" stroke="#555555" stroke-width="1" stroke-miterlimit="10" width="490.236" height="288.647"/>
<g>
	<defs>
		<circle id="SVGID_3_" cx="294.372" cy="502.486" r="8.035"/>
	</defs>
	<clipPath id="SVGID_4_">
		<use xlink:href="#SVGID_3_"  overflow="visible"/>
	</clipPath>
	
		<rect x="263.526" y="471.641" clip-path="url(#SVGID_4_)" fill-rule="evenodd" clip-rule="evenodd" fill="#555555" width="61.69" height="61.69"/>
</g>
<g>
	<defs>
		<path id="SVGID_5_" d="M216.763,747.64c27.084,0,49.04-21.955,49.04-49.037c0-27.087-21.955-49.043-49.04-49.043
			c-27.085,0-49.04,21.956-49.04,49.043C167.724,725.685,189.678,747.64,216.763,747.64z"/>
	</defs>
	<clipPath id="SVGID_6_">
		<use xlink:href="#SVGID_5_"  overflow="visible"/>
	</clipPath>
	
		<rect x="144.913" y="626.75" clip-path="url(#SVGID_6_)" fill-rule="evenodd" clip-rule="evenodd" fill="#555555" width="143.7" height="143.7"/>
</g>
<g>
	<defs>
		<path id="SVGID_7_" d="M326.842,806.742l-2.477-12.225c-5.84-28.812-34.2-47.622-63.018-41.78l-62.88,12.745
			c-28.82,5.846-47.619,34.211-41.78,63.019l2.478,12.225L326.842,806.742z"/>
	</defs>
	<clipPath id="SVGID_8_">
		<use xlink:href="#SVGID_7_"  overflow="visible"/>
	</clipPath>
	
		<rect x="132.815" y="728.861" clip-path="url(#SVGID_8_)" fill-rule="evenodd" clip-rule="evenodd" fill="#555555" width="216.837" height="134.674"/>
</g>
<g>
	<defs>
		
			<rect id="SVGID_9_" x="740.447" y="635.733" transform="matrix(-0.1816 0.9834 -0.9834 -0.1816 1931.6353 -47.4709)" width="490.248" height="288.648"/>
	</defs>
	<clipPath id="SVGID_10_">
		<use xlink:href="#SVGID_9_"  overflow="visible"/>
	</clipPath>
	
		<rect x="776.323" y="489.992" clip-path="url(#SVGID_10_)" fill-rule="evenodd" clip-rule="evenodd" fill="#FFFFFF" width="418.497" height="580.131"/>
</g>
<rect x="740.447" y="635.733" transform="matrix(-0.1816 0.9834 -0.9834 -0.1816 1931.6353 -47.4709)" fill="none" stroke="#555555" stroke-width="1" stroke-miterlimit="10" width="490.248" height="288.648"/>
<g>
	<g>
		<defs>
			
				<rect id="SVGID_11_" x="363.892" y="566.383" transform="matrix(-0.1771 -0.9842 0.9842 -0.1771 17.1949 1439.1145)" width="492.7" height="291.97"/>
		</defs>
		<clipPath id="SVGID_12_">
			<use xlink:href="#SVGID_11_"  overflow="visible"/>
		</clipPath>
		
			<rect x="441.446" y="443.209" transform="matrix(-0.9842 0.1771 -0.1771 -0.9842 1336.9891 1305.4146)" clip-path="url(#SVGID_12_)" fill-rule="evenodd" clip-rule="evenodd" fill="#FFFFFF" width="337.592" height="538.32"/>
	</g>
	
		<rect x="363.892" y="566.383" transform="matrix(-0.1771 -0.9842 0.9842 -0.1771 17.1949 1439.1145)" fill="none" stroke="#555555" stroke-miterlimit="10" width="492.7" height="291.97"/>
	<g>
		<defs>
			<path id="SVGID_13_" d="M695.914,473.323c4.368-0.786,7.27-4.961,6.483-9.328s-4.961-7.273-9.328-6.487
				c-4.368,0.786-7.274,4.966-6.488,9.334C687.367,471.208,691.547,474.109,695.914,473.323z"/>
		</defs>
		<clipPath id="SVGID_14_">
			<use xlink:href="#SVGID_13_"  overflow="visible"/>
		</clipPath>
		
			<rect x="663.644" y="434.571" transform="matrix(-0.9842 0.1771 -0.1771 -0.9842 1460.4231 800.486)" clip-path="url(#SVGID_14_)" fill-rule="evenodd" clip-rule="evenodd" fill="#555555" width="61.69" height="61.69"/>
	</g>
	<g>
		<defs>
			<path id="SVGID_15_" d="M673.465,477.362c4.367-0.785,7.27-4.961,6.483-9.327c-0.786-4.368-4.962-7.273-9.329-6.488
				c-4.366,0.786-7.271,4.966-6.486,9.333C664.919,475.247,669.098,478.148,673.465,477.362z"/>
		</defs>
		<clipPath id="SVGID_16_">
			<use xlink:href="#SVGID_15_"  overflow="visible"/>
		</clipPath>
		
			<rect x="641.195" y="438.61" transform="matrix(-0.9842 0.1771 -0.1771 -0.9842 1416.5884 812.4877)" clip-path="url(#SVGID_16_)" fill-rule="evenodd" clip-rule="evenodd" fill="#555555" width="61.69" height="61.689"/>
	</g>
	<g>
		<defs>
			<circle id="SVGID_17_" cx="636.587" cy="581.398" r="35.437"/>
		</defs>
		<clipPath id="SVGID_18_">
			<use xlink:href="#SVGID_17_"  overflow="visible"/>
		</clipPath>
		
			<rect x="578.342" y="523.152" transform="matrix(-0.9842 0.1771 -0.1771 -0.9842 1366.0708 1040.8766)" clip-path="url(#SVGID_18_)" fill-rule="evenodd" clip-rule="evenodd" fill="#555555" width="116.492" height="116.491"/>
	</g>
	<g>
		<defs>
			<path id="SVGID_19_" d="M708.736,665.246l-1.559-8.769c-3.692-20.669-23.621-34.571-44.298-30.887l-45.097,8.037
				c-20.675,3.688-34.569,23.612-30.888,44.283l1.561,8.777L708.736,665.246z"/>
		</defs>
		<clipPath id="SVGID_20_">
			<use xlink:href="#SVGID_19_"  overflow="visible"/>
		</clipPath>
		
			<rect x="560.533" y="606.401" transform="matrix(-0.9842 0.1771 -0.1771 -0.9842 1394.2996 1181.2117)" clip-path="url(#SVGID_20_)" fill-rule="evenodd" clip-rule="evenodd" fill="#555555" width="167.815" height="92.844"/>
	</g>
	<g>
		<defs>
			<circle id="SVGID_21_" cx="568.639" cy="781.666" r="38.025"/>
		</defs>
		<clipPath id="SVGID_22_">
			<use xlink:href="#SVGID_21_"  overflow="visible"/>
		</clipPath>
		
			<rect x="507.805" y="720.831" transform="matrix(-0.9842 0.1771 -0.1771 -0.9842 1266.7079 1450.2836)" clip-path="url(#SVGID_22_)" fill-rule="evenodd" clip-rule="evenodd" fill="#555555" width="121.669" height="121.669"/>
	</g>
	<g>
		<defs>
			<path id="SVGID_23_" d="M651.421,871.703l-1.72-9.69c-4.067-22.829-26.09-38.186-48.923-34.122l-49.829,8.883
				c-22.836,4.073-38.19,26.087-34.116,48.916l1.727,9.688L651.421,871.703z"/>
		</defs>
		<clipPath id="SVGID_24_">
			<use xlink:href="#SVGID_23_"  overflow="visible"/>
		</clipPath>
		
			<rect x="490.104" y="809.083" transform="matrix(-0.9842 0.1771 -0.1771 -0.9842 1303.5693 1599.6144)" clip-path="url(#SVGID_24_)" fill-rule="evenodd" clip-rule="evenodd" fill="#555555" width="180.598" height="97.79"/>
	</g>
</g>
<g>
	<defs>
		<path id="SVGID_25_" d="M1142.914,592.638c4.438,0,8.031-3.596,8.031-8.033s-3.594-8.037-8.031-8.037s-8.038,3.6-8.038,8.037
			S1138.477,592.638,1142.914,592.638z"/>
	</defs>
	<clipPath id="SVGID_26_">
		<use xlink:href="#SVGID_25_"  overflow="visible"/>
	</clipPath>
	
		<rect x="1112.066" y="553.758" clip-path="url(#SVGID_26_)" fill-rule="evenodd" clip-rule="evenodd" fill="#555555" width="61.689" height="61.69"/>
</g>
<g>
	<defs>
		<circle id="SVGID_27_" cx="1124.664" cy="580.04" r="8.035"/>
	</defs>
	<clipPath id="SVGID_28_">
		<use xlink:href="#SVGID_27_"  overflow="visible"/>
	</clipPath>
	
		<rect x="1093.817" y="549.195" clip-path="url(#SVGID_28_)" fill-rule="evenodd" clip-rule="evenodd" fill="#555555" width="61.691" height="61.69"/>
</g>
<g>
	<defs>
		<path id="SVGID_29_" d="M1106.417,583.513c4.438,0,8.033-3.595,8.033-8.032s-3.596-8.037-8.033-8.037s-8.038,3.6-8.038,8.037
			S1101.979,583.513,1106.417,583.513z"/>
	</defs>
	<clipPath id="SVGID_30_">
		<use xlink:href="#SVGID_29_"  overflow="visible"/>
	</clipPath>
	
		<rect x="1075.57" y="544.633" clip-path="url(#SVGID_30_)" fill-rule="evenodd" clip-rule="evenodd" fill="#555555" width="61.689" height="61.69"/>
</g>
<g>
	<defs>
		<circle id="SVGID_31_" cx="969.583" cy="712.369" r="35.436"/>
	</defs>
	<clipPath id="SVGID_32_">
		<use xlink:href="#SVGID_31_"  overflow="visible"/>
	</clipPath>
	
		<rect x="911.337" y="654.122" clip-path="url(#SVGID_32_)" fill-rule="evenodd" clip-rule="evenodd" fill="#555555" width="116.491" height="116.492"/>
</g>
<g>
	<defs>
		<path id="SVGID_33_" d="M996.456,817.242l2.954-8.411c6.962-19.804-3.557-41.718-23.358-48.672l-43.219-15.197
			c-19.813-6.958-41.723,3.551-48.687,23.363l-2.944,8.402L996.456,817.242z"/>
	</defs>
	<clipPath id="SVGID_34_">
		<use xlink:href="#SVGID_33_"  overflow="visible"/>
	</clipPath>
	
		<rect x="858.392" y="720.005" clip-path="url(#SVGID_34_)" fill-rule="evenodd" clip-rule="evenodd" fill="#555555" width="165.979" height="120.048"/>
</g>
<g>
	<defs>
		<path id="SVGID_35_" d="M1040.606,857.918c21.001,0,38.028-17.023,38.028-38.029c0-21.002-17.027-38.029-38.028-38.029
			c-21.002,0-38.029,17.027-38.029,38.029C1002.577,840.895,1019.604,857.918,1040.606,857.918z"/>
	</defs>
	<clipPath id="SVGID_36_">
		<use xlink:href="#SVGID_35_"  overflow="visible"/>
	</clipPath>
	
		<rect x="979.766" y="759.05" clip-path="url(#SVGID_36_)" fill-rule="evenodd" clip-rule="evenodd" fill="#555555" width="121.68" height="121.678"/>
</g>
<g>
	<defs>
		<path id="SVGID_37_" d="M1074.75,938.952l3.27-9.29c7.689-21.879-3.92-46.075-25.805-53.773l-47.749-16.777
			c-21.883-7.693-46.079,3.92-53.772,25.805l-3.262,9.288L1074.75,938.952z"/>
	</defs>
	<clipPath id="SVGID_38_">
		<use xlink:href="#SVGID_37_"  overflow="visible"/>
	</clipPath>
	
		<rect x="924.621" y="833.923" clip-path="url(#SVGID_38_)" fill-rule="evenodd" clip-rule="evenodd" fill="#555555" width="178.584" height="127.838"/>
</g>
<g>
	<defs>
		
			<rect id="SVGID_39_" x="-16.431" y="170.8" transform="matrix(0.1986 0.9801 -0.9801 0.1986 492.1165 28.4082)" width="490.236" height="288.647"/>
	</defs>
	<clipPath id="SVGID_40_">
		<use xlink:href="#SVGID_39_"  overflow="visible"/>
	</clipPath>
	
		<rect x="15.749" y="23.415" clip-path="url(#SVGID_40_)" fill-rule="evenodd" clip-rule="evenodd" fill="#FFFFFF" width="425.878" height="583.416"/>
</g>
<rect x="-16.431" y="170.8" transform="matrix(0.1986 0.9801 -0.9801 0.1986 492.1165 28.4082)" fill="none" stroke="#555555" stroke-width="1" stroke-miterlimit="10" width="490.236" height="288.647"/>
<g>
	<defs>
		<circle id="SVGID_41_" cx="304.287" cy="82.1" r="8.035"/>
	</defs>
	<clipPath id="SVGID_42_">
		<use xlink:href="#SVGID_41_"  overflow="visible"/>
	</clipPath>
	
		<rect x="273.441" y="51.255" clip-path="url(#SVGID_42_)" fill-rule="evenodd" clip-rule="evenodd" fill="#555555" width="61.69" height="61.69"/>
</g>
<g>
	<defs>
		<circle id="SVGID_43_" cx="270.005" cy="258.912" r="29.738"/>
	</defs>
	<clipPath id="SVGID_44_">
		<use xlink:href="#SVGID_43_"  overflow="visible"/>
	</clipPath>
	
		<rect x="226.436" y="215.342" clip-path="url(#SVGID_44_)" fill-rule="evenodd" clip-rule="evenodd" fill="#555555" width="87.14" height="87.14"/>
</g>
<g>
	<defs>
		<path id="SVGID_45_" d="M336.757,324.489l-1.502-7.413c-3.542-17.472-20.739-28.878-38.213-25.335l-38.13,7.729
			c-17.477,3.545-28.876,20.746-25.335,38.214l1.502,7.413L336.757,324.489z"/>
	</defs>
	<clipPath id="SVGID_46_">
		<use xlink:href="#SVGID_45_"  overflow="visible"/>
	</clipPath>
	
		<rect x="219.1" y="277.262" clip-path="url(#SVGID_46_)" fill-rule="evenodd" clip-rule="evenodd" fill="#555555" width="131.49" height="81.666"/>
</g>
<g>
	<defs>
		
			<rect id="SVGID_47_" x="750.362" y="168.998" transform="matrix(-0.1816 0.9834 -0.9834 -0.1816 1484.375 -608.7148)" width="490.249" height="288.648"/>
	</defs>
	<clipPath id="SVGID_48_">
		<use xlink:href="#SVGID_47_"  overflow="visible"/>
	</clipPath>
	
		<rect x="786.238" y="23.256" clip-path="url(#SVGID_48_)" fill-rule="evenodd" clip-rule="evenodd" fill="#FFFFFF" width="418.497" height="580.131"/>
</g>
<rect x="750.362" y="168.998" transform="matrix(-0.1816 0.9834 -0.9834 -0.1816 1484.375 -608.7148)" fill="none" stroke="#555555" stroke-width="1" stroke-miterlimit="10" width="490.249" height="288.648"/>
<g>
	<g>
		<defs>
			
				<rect id="SVGID_49_" x="354.796" y="145.925" transform="matrix(0.2889 -0.9574 0.9574 0.2889 148.0367 783.1136)" width="492.7" height="291.97"/>
		</defs>
		<clipPath id="SVGID_50_">
			<use xlink:href="#SVGID_49_"  overflow="visible"/>
		</clipPath>
		
			<rect x="432.35" y="22.751" transform="matrix(-0.9574 -0.2888 0.2888 -0.9574 1092.3499 745.0212)" clip-path="url(#SVGID_50_)" fill-rule="evenodd" clip-rule="evenodd" fill="#FFFFFF" width="337.592" height="538.321"/>
	</g>
	
		<rect x="354.796" y="145.925" transform="matrix(0.2889 -0.9574 0.9574 0.2889 148.0367 783.1136)" fill="none" stroke="#555555" stroke-miterlimit="10" width="492.7" height="291.97"/>
	<g>
		<defs>
			<path id="SVGID_51_" d="M784.961,121.132c4.249,1.282,8.729-1.122,10.01-5.37c1.281-4.249-1.12-8.733-5.368-10.015
				c-4.248-1.281-8.736,1.125-10.018,5.373C778.304,115.368,780.713,119.85,784.961,121.132z"/>
		</defs>
		<clipPath id="SVGID_52_">
			<use xlink:href="#SVGID_51_"  overflow="visible"/>
		</clipPath>
		
			<rect x="756.435" y="82.594" transform="matrix(-0.9574 -0.2889 0.2889 -0.9574 1508.2339 449.4489)" clip-path="url(#SVGID_52_)" fill-rule="evenodd" clip-rule="evenodd" fill="#555555" width="61.69" height="61.689"/>
	</g>
	<g>
		<defs>
			<path id="SVGID_53_" d="M763.123,114.543c4.247,1.282,8.729-1.122,10.011-5.369c1.281-4.249-1.122-8.733-5.369-10.015
				c-4.248-1.281-8.734,1.125-10.016,5.374C756.468,108.779,758.875,113.262,763.123,114.543z"/>
		</defs>
		<clipPath id="SVGID_54_">
			<use xlink:href="#SVGID_53_"  overflow="visible"/>
		</clipPath>
		
			<rect x="734.596" y="76.005" transform="matrix(-0.9574 -0.2889 0.2889 -0.9574 1467.3904 430.2433)" clip-path="url(#SVGID_54_)" fill-rule="evenodd" clip-rule="evenodd" fill="#555555" width="61.69" height="61.69"/>
	</g>
	<g>
		<defs>
			<circle id="SVGID_55_" cx="695.927" cy="183.879" r="28.867"/>
		</defs>
		<clipPath id="SVGID_56_">
			<use xlink:href="#SVGID_55_"  overflow="visible"/>
		</clipPath>
		
			<rect x="648.48" y="136.43" transform="matrix(-0.9574 -0.2889 0.2889 -0.9574 1309.0786 560.9405)" clip-path="url(#SVGID_56_)" fill-rule="evenodd" clip-rule="evenodd" fill="#555555" width="94.897" height="94.897"/>
	</g>
	<g>
		<defs>
			<path id="SVGID_57_" d="M717.304,271.418l2.109-6.942c4.961-16.369-4.366-33.827-20.737-38.796l-35.708-10.838
				c-16.371-4.966-33.822,4.36-38.792,20.726l-2.112,6.949L717.304,271.418z"/>
		</defs>
		<clipPath id="SVGID_58_">
			<use xlink:href="#SVGID_57_"  overflow="visible"/>
		</clipPath>
		
			<rect x="606.87" y="200.814" transform="matrix(-0.9574 -0.2889 0.2889 -0.9574 1252.7354 662.1286)" clip-path="url(#SVGID_58_)" fill-rule="evenodd" clip-rule="evenodd" fill="#555555" width="136.706" height="75.633"/>
	</g>
	<g>
		<defs>
			<circle id="SVGID_59_" cx="572.566" cy="304.134" r="30.976"/>
		</defs>
		<clipPath id="SVGID_60_">
			<use xlink:href="#SVGID_59_"  overflow="visible"/>
		</clipPath>
		
			<rect x="523.01" y="254.577" transform="matrix(-0.9574 -0.2888 0.2888 -0.9574 1032.8777 760.6899)" clip-path="url(#SVGID_60_)" fill-rule="evenodd" clip-rule="evenodd" fill="#555555" width="99.113" height="99.115"/>
	</g>
	<g>
		<defs>
			<path id="SVGID_61_" d="M599.372,400.097l2.334-7.67c5.487-18.075-4.823-37.364-22.898-42.856l-39.456-11.973
				c-18.083-5.485-37.367,4.818-42.849,22.896l-2.329,7.671L599.372,400.097z"/>
		</defs>
		<clipPath id="SVGID_62_">
			<use xlink:href="#SVGID_61_"  overflow="visible"/>
		</clipPath>
		
			<rect x="479.334" y="324.048" transform="matrix(-0.9574 -0.2889 0.2889 -0.9574 977.1129 871.9517)" clip-path="url(#SVGID_62_)" fill-rule="evenodd" clip-rule="evenodd" fill="#555555" width="147.12" height="79.663"/>
	</g>
</g>
<g>
	<defs>
		<path id="SVGID_63_" d="M1152.829,125.901c4.438,0,8.031-3.596,8.031-8.033s-3.594-8.037-8.031-8.037s-8.038,3.6-8.038,8.037
			S1148.392,125.901,1152.829,125.901z"/>
	</defs>
	<clipPath id="SVGID_64_">
		<use xlink:href="#SVGID_63_"  overflow="visible"/>
	</clipPath>
	
		<rect x="1121.981" y="87.021" clip-path="url(#SVGID_64_)" fill-rule="evenodd" clip-rule="evenodd" fill="#555555" width="61.689" height="61.69"/>
</g>
<g>
	<defs>
		<circle id="SVGID_65_" cx="1134.579" cy="113.304" r="8.035"/>
	</defs>
	<clipPath id="SVGID_66_">
		<use xlink:href="#SVGID_65_"  overflow="visible"/>
	</clipPath>
	
		<rect x="1103.732" y="82.459" clip-path="url(#SVGID_66_)" fill-rule="evenodd" clip-rule="evenodd" fill="#555555" width="61.691" height="61.69"/>
</g>
<g>
	<defs>
		<path id="SVGID_67_" d="M1116.332,116.776c4.438,0,8.033-3.595,8.033-8.032s-3.596-8.037-8.033-8.037s-8.038,3.6-8.038,8.037
			S1111.895,116.776,1116.332,116.776z"/>
	</defs>
	<clipPath id="SVGID_68_">
		<use xlink:href="#SVGID_67_"  overflow="visible"/>
	</clipPath>
	
		<rect x="1085.485" y="77.896" clip-path="url(#SVGID_68_)" fill-rule="evenodd" clip-rule="evenodd" fill="#555555" width="61.689" height="61.69"/>
</g>
<g>
	<defs>
		<circle id="SVGID_69_" cx="979.498" cy="245.632" r="35.436"/>
	</defs>
	<clipPath id="SVGID_70_">
		<use xlink:href="#SVGID_69_"  overflow="visible"/>
	</clipPath>
	
		<rect x="921.252" y="187.386" clip-path="url(#SVGID_70_)" fill-rule="evenodd" clip-rule="evenodd" fill="#555555" width="116.491" height="116.492"/>
</g>
<g>
	<defs>
		<path id="SVGID_71_" d="M1006.371,350.506l2.954-8.411c6.962-19.804-3.557-41.718-23.358-48.672l-43.219-15.197
			c-19.813-6.958-41.723,3.551-48.687,23.363l-2.944,8.402L1006.371,350.506z"/>
	</defs>
	<clipPath id="SVGID_72_">
		<use xlink:href="#SVGID_71_"  overflow="visible"/>
	</clipPath>
	
		<rect x="868.307" y="253.269" clip-path="url(#SVGID_72_)" fill-rule="evenodd" clip-rule="evenodd" fill="#555555" width="165.979" height="120.048"/>
</g>
<g>
	<defs>
		<path id="SVGID_73_" d="M1050.521,391.182c21.001,0,38.028-17.023,38.028-38.029c0-21.002-17.027-38.029-38.028-38.029
			c-21.002,0-38.029,17.027-38.029,38.029C1012.492,374.158,1029.52,391.182,1050.521,391.182z"/>
	</defs>
	<clipPath id="SVGID_74_">
		<use xlink:href="#SVGID_73_"  overflow="visible"/>
	</clipPath>
	
		<rect x="989.681" y="292.313" clip-path="url(#SVGID_74_)" fill-rule="evenodd" clip-rule="evenodd" fill="#555555" width="121.68" height="121.678"/>
</g>
<g>
	<defs>
		<path id="SVGID_75_" d="M1084.665,472.216l3.27-9.29c7.689-21.879-3.92-46.075-25.805-53.773l-47.749-16.777
			c-21.883-7.693-46.079,3.92-53.772,25.805l-3.262,9.288L1084.665,472.216z"/>
	</defs>
	<clipPath id="SVGID_76_">
		<use xlink:href="#SVGID_75_"  overflow="visible"/>
	</clipPath>
	
		<rect x="934.536" y="367.187" clip-path="url(#SVGID_76_)" fill-rule="evenodd" clip-rule="evenodd" fill="#555555" width="178.584" height="127.838"/>
</g>
</svg>
